<?xml version="1.0" encoding="UTF-8" standalone="no"?>
<svg
   viewBox="0 0 148.11783 241.89375"
   version="1.1"
   id="svg1468"
   inkscape:version="1.4 (86a8ad7, 2024-10-11)"
   sodipodi:docname="es-logo.svg"
   xml:space="preserve"
   width="148.11783"
   height="241.89375"
   xmlns:inkscape="http://www.inkscape.org/namespaces/inkscape"
   xmlns:sodipodi="http://sodipodi.sourceforge.net/DTD/sodipodi-0.dtd"
   xmlns="http://www.w3.org/2000/svg"
   xmlns:svg="http://www.w3.org/2000/svg"><sodipodi:namedview
     id="namedview1470"
     pagecolor="#ffffff"
     bordercolor="#000000"
     borderopacity="0.25"
     inkscape:showpageshadow="2"
     inkscape:pageopacity="0.0"
     inkscape:pagecheckerboard="0"
     inkscape:deskcolor="#d1d1d1"
     inkscape:document-units="mm"
     showgrid="false"
     inkscape:zoom="0.38083965"
     inkscape:cx="611.80604"
     inkscape:cy="337.41235"
     inkscape:window-width="1920"
     inkscape:window-height="1017"
     inkscape:window-x="-8"
     inkscape:window-y="-8"
     inkscape:window-maximized="1"
     inkscape:current-layer="layer1-5" /><defs
     id="defs1465" /><g
     inkscape:label="Mapa"
     inkscape:groupmode="layer"
     id="layer1"
     transform="translate(-57.494998,10.494764)"
     style="display:inline;opacity:1" /><g
     inkscape:label="MiniMapa"
     inkscape:groupmode="layer"
     id="layer1-5"
     transform="matrix(0.16644296,0,0,0.16644296,3.6935678,273.89183)"
     style="display:inline;fill-opacity:1"
     stroke="#a08dff"
     fill="#bfb2ff"><path
       style="display:inline;fill-rule:evenodd;stroke-miterlimit:4;stroke-dasharray:none;stroke-opacity:1"
       d="m -19.342142,-422.46203 -0.771949,-1.25515 -0.857733,-1.30626 0.364536,-2.5159 1.506385,-4.32766 0.192992,-0.24424 4.133186,-0.91437 1.586799,2.88516 1.206186,-0.44873 -1.876289,-7.30925 -1.656487,-3.6007 1.629689,0.24989 1.93525,-3.3508 -2.342672,-1.37441 0.493192,-2.01615 2.583916,-0.53955 1.4581392,-4.41283 1.2008195,-3.62339 3.4523666,-1.31758 2.4391685,-5.35564 3.6667963,-3.32236 -1.3991727,-2.81697 3.2754611,0.59633 2.5142223,-1.93664 -1.2812392,-2.64092 3.061026,-1.1926 -1.0667989,-2.84536 -1.3134029,1.31187 -2.5892709,-1.48791 1.5117455,-5.34994 -4.68534967,0.10219 -7.08163333,-1.21533 -2.0799964,-0.84057 -0.396702,-0.53955 -1.286594,-1.77191 1.20618,-2.95325 2.9698954,-0.33507 1.7797921,-2.68639 0.2037085,-5.92913 4.2028788,-10.47836 1.08288595,-2.06727 3.86514425,-1.62996 3.8865868,-1.10184 1.3562878,-2.48184 0.2573199,-2.68063 -3.1736041,-8.18392 1.1364921,-3.17471 0.6808295,-7.29794 3.237931,-7.17867 -1.29196,-14.76056 1.833398,-3.33944 -2.117521,-2.27741 0.053611,-3.08954 -12.7104878,-5.33857 -4.0635028,-12.14237 -1.4206151,-2.76584 -4.0259733,-0.75535 2.519583,-6.87766 -0.05897,-3.66885 3.3129846,-3.07251 -1.1043337,-4.86151 2.1228871,-1.24378 2.2140175,1.49368 0.8202054,-1.84582 3.46308252,-2.49321 1.03999578,-3.4189 6.475863,-1.84582 1.5492751,-3.52119 2.2622687,-1.14719 6.588441,-1.67538 1.608242,-2.95896 -1.393812,-1.53343 1.988861,-8.99034 0.327008,-0.34648 1.994227,-2.09561 1.056078,-10.98952 1.232983,-0.6077 -0.707622,-1.65835 2.36412,-4.48097 1.125766,0.2215 0.13402,-2.98735 36.432091,-0.0738 85.982097,0.25556 16.00739,-0.26127 -0.47175,-1.88552 1.52247,-1.93098 2.97525,0.65316 7.84288,-4.4242 3.21648,-8.77454 -0.73979,-2.64092 3.24865,-2.16951 2.39093,-6.28128 2.43916,-1.26651 -0.28411,-2.39102 3.61318,-4.06075 -1.34556,-2.01609 1.8334,-6.66186 0.43958,-6.16211 3.08247,-0.85189 0.7666,-9.13804 1.49566,-0.95973 -0.66474,-1.85718 3.75793,-2.75448 1.69402,-3.44163 0.57361,-1.16998 0.50927,-6.17908 3.67216,-5.92924 -0.27876,-6.77541 -2.08,-3.11793 -2.36948,-4.71385 3.29691,-2.90785 1.51174,-9.96148 3.02887,-4.23679 11.34347,1.59587 7.01195,-4.23679 2.28371,2.46488 1.90309,-0.44868 4.64782,-7.61032 1.6833,-5.685 6.85648,-1.95932 2.5035,0.89735 6.82431,-5.06599 1.27052,-0.94282 0.35381,-17.0663 1.94598,-0.76672 1.38309,-3.25427 -4.25649,-4.96375 4.35298,-0.83481 3.72041,-6.70726 0.0858,-7.4115 -3.02886,-3.35086 0.075,-0.31233 0.6433,-2.35127 -1.28123,-4.79902 -5.18391,-3.85054 -1.19546,-4.72522 -0.0107,-0.0171 4.53525,-2.86803 -1.00247,-3.36783 1.20082,-5.17383 1.89237,-1.85719 -1.37237,-5.24198 2.41773,-4.41854 -0.84165,-2.18083 2.13897,-6.61073 3.447,-4.1743 4.37978,0.61901 4.14927,-2.17517 3.66144,-6.79244 2.18721,-0.73833 0.6165,-0.20448 3.20576,0.56799 2.46061,-1.34602 3.45237,-14.39139 2.86267,-1.27217 0.93279,-2.30581 4.3637,0.64745 0.79876,0.11927 1.38845,-0.0852 0.83629,-5.77587 6.27751,0.15907 -0.27877,-2.86814 8.06803,-3.93006 0.0268,-1.55611 -0.7934,-5.54305 -2.49278,-5.75314 1.50102,-8.81996 v -1.00524 l -3.38803,-5.27614 1.56536,-6.39493 6.90473,4.65141 7.71421,3.49846 14.87626,-0.7951 0.0536,-0.56794 0.36989,-3.98684 7.06556,-8.98473 1.69937,-0.12498 -0.82556,-3.18036 2.61607,-2.35127 -5.19999,-4.33332 -0.35917,-4.2822 -3.6936,-4.71385 -0.0107,-0.64745 0.26805,-0.29531 2.72865,-3.07257 -0.6969,-4.62858 2.03711,-4.07781 11.40781,-7.4796 -1.1633,-3.135 1.36701,-2.5273 -4.59958,-3.9414 0.40742,-4.6287 4.05278,-7.6558 2.59999,-0.3464 0.7934,-3.9584 2.15505,-0.6021 2.8037,-3.9869 -2.1068,-2.6522 -1.23298,-0.6702 -3.4202,0.6134 -2.72329,-1.1075 -0.57897,-1.6072 1.89236,-4.2311 -4.13854,0.1249 -2.4499,-2.9135 3.84371,-3.311 6.00411,-0.1419 0.98103,-6.4518 -1.07752,-1.8855 -3.48453,-0.4828 -3.9134,-0.5509 2.2569,-2.868 -3.00742,-3.0669 -0.25731,-1.3744 2.2301,-3.8732 0.2734,-0.04 1.55999,-0.2215 1.08289,-4.5264 2.26763,-3.2656 -2.76082,-2.6522 1.13113,-3.6518 -2.34804,-1.2665 -0.37525,-2.1865 -0.2466,-0.1704 -1.6833,1.1131 -1.09361,-1.187 0.15011,-5.3102 -0.0107,-0.034 -0.64866,-2.9135 -2.61071,-3.3394 1.87093,-3.7824 -1.56,-1.1756 -4.81937,1.4369 -0.34309,-0.1761 -0.17691,-0.7781 2.18185,-5.401 -2.79298,-3.595 -2.67505,0.5679 -1.5868,-3.1463 -3.46309,-2.5159 -1.03999,-3.7655 -5.50556,-0.335 -1.9567,-0.1193 -2.04247,-0.5907 1.59216,-6.2074 -4.13855,2.7998 0.86846,-6.1392 -2.67505,-0.1761 -2.46062,1.948 -4.04205,-3.5723 -7.36576,-1.1529 0.2466,-4.1119 -3.00741,-1.2721 -1.93526,-2.0616 0.97031,-5.1171 -3.47381,-6.571 2.3534,-3.1747 -0.28948,-4.055 0.12329,-0.051 5.81113,-2.3797 10.014,-6.4971 1.58144,-1.5846 2.14968,-2.1467 -0.17154,-1.5051 -4.4334,0.3635 -2.72329,2.4024 -1.1633,0.1647 -1.05072,-0.2102 -1.84948,-2.0104 -1.89236,-0.3976 -0.25732,-3.419 -3.57567,0.5509 -0.5736,-0.3918 -1.25979,-6.588 -0.67546,-2.5501 -0.16083,-0.5906 -0.53608,-0.3635 -4.15999,2.0446 -0.2466,-3.8904 -9.79957,-1.9025 0.0268,-1.5505 -2.50887,-0.9712 -1.16329,-2.3796 -2.16577,-0.3294 1.37237,-3.9812 -2.31052,-1.8628 0.36454,-1.9367 -2.91628,-3.7994 -1.7369,-0.142 -0.19299,-0.017 -5.05525,-3.8847 -1.91381,0.3748 -1.58681,0.3067 -1.07215,-4.498 -1.43134,-4.9581 -2.86804,-2.6011 -2.20329,0.6702 -6.64205,1.7662 -2.07464,-0.1306 -2.38556,-0.3407 -3.5703,-3.3224 -1.56536,5.8837 1.01856,2.3626 -2.01031,1.3574 -6.14885,-8.1839 -2.51422,-0.7894 -1.1901,0.903 -1.21155,-1.7947 -0.13938,-0.2044 1.20618,-3.0044 -1.66185,-1.4028 2.42845,-3.7427 -3.07175,-5.4408 5.18927,-10.4897 25.98923,0.074 2.93236,0.011 4.9534,-0.2896 5.60205,-0.3294 1.65113,4.8444 4.34225,1.1416 -0.31628,3.1974 3.80617,9.0472 5.22144,1.4369 5.52699,-2.4365 13.81482,0.1477 9.55833,0.1079 24.68119,1.6868 0.33237,-2.1355 4.81938,-0.6077 2.14968,-3.9414 3.4202,2.2433 2.32659,-2.9248 1.39918,-1.7549 4.46556,-1.772 -0.90062,-4.7592 -0.83629,-2.1355 -3.01814,-2.709 0.80949,-2.0275 -4.81938,-6.8095 -0.72371,-15.4251 -0.1501,-3.294 -1.14721,-17.2197 -3.37196,-2.868 -14.43131,-1.5675 -0.35381,-1.6811 -2.12288,-0.8122 -4.4334,-1.6981 -6.0041,-5.2363 -4.81938,-0.9769 0.97567,-2.7715 -0.46639,-0.2896 -0.85238,-0.2726 -4.55668,1.4823 1.14185,-3.6177 -3.74185,-2.3797 -0.88989,-2.3058 3.59174,-1.045 1.90309,-2.6977 2.57319,-0.7212 -0.2734,-4.5946 -3.34515,-0.8576 4.61566,-23.5692 0.17691,-0.9143 1.34557,-8.3714 3.94019,-24.4949 -0.94886,-3.1406 -0.50392,-0.8235 -0.90598,-1.4653 -0.47711,-0.2158 -16.00203,-1.63 -10.06761,-0.9087 -34.75951,-3.152 -2.6,-2.0105 0.4932,-1.3914 5.6771,-8.7518 4.25113,-0.301 0.9167,-0.3351 3.3505,-2.5784 0.2734,-0.6077 -6.29895,-1.4596 -0.83629,-5.1171 1.17938,-3.9585 4.60494,-0.9825 0.88989,-2.249 -1.24907,-5.5487 -0.45566,-10.3932 -1.8066,-0.6985 -1.67793,-11.0236 4.98019,-3.9471 7.59627,-9.5753 12.44782,-9.0756 -1.73691,-5.0319 0.69691,-1.9707 -1.47959,-0.903 1.4099,-1.9537 2.90556,-0.4543 0.10721,-1.3801 -4.20288,-3.754 -0.90597,-2.5217 4.14927,-1.948 0.5468,-5.5827 0.0697,-0.04 10.30885,-6.0996 0.0268,-0.023 4.14927,-0.9428 1.20619,-2.6181 -1.04,-2.5785 1.53319,-0.5906 6.77607,-1.0223 -1.13113,3.5269 1.7369,0.4373 2.29443,-6.1337 5.41442,-0.034 1.60288,4.1687 6.96906,-0.4941 1.50103,1.8798 0.97567,-10.1489 3.58638,-2.0162 4.24577,1.3517 2.14432,3.8108 3.06638,0.142 2.27835,-3.7427 -1.08288,-1.3857 0.61649,-5.5998 2.04783,0.159 1.76907,2.8851 3.32907,0.011 5.98267,-6.6959 3.21648,-2.5103 1.90309,0.4658 0.1233,-2.4422 2.09608,0.9882 2.36412,-1.9707 -0.32165,4.6798 1.96742,2.1808 3.33978,0.057 1.2598,-1.9991 4.46556,4.4526 1.24906,3.9187 2.92165,0.2897 2.47133,3.2429 1.18474,0.4543 2.48206,-0.2896 3.2969,1.4085 3.33979,-0.7895 7.61235,1.5675 4.19752,3.0044 9.32245,-1.7549 -0.71835,-20.5535 -51.87123,-51.0401 2.20329,-2.4421 2.38021,0.5566 3.39339,-5.2988 1.94598,4.7479 1.9835,-0.3919 1.04536,2.249 2.88411,0.9428 1.43135,-2.7885 9.03296,-10.4329 2.6,-1.2779 2.23545,4.038 4.33691,-2.0332 2.1604,-2.6125 2.46598,2.4364 1.66721,-0.6531 2.63752,6.1734 -1.24907,4.3618 5.17319,-2.7602 1.75298,0.6134 0.005,2.391 2.62144,-0.5339 -0.84701,8.0533 0.42351,0.9825 4.79256,0.6986 3.82227,2.533 2.68041,-1.9537 7.34967,-1.7436 3.84906,1.4482 1.90845,4.8161 2.02103,2.8056 0.72907,0.3351 8.15918,-5.5942 2.56247,1.2949 1.86015,-0.9371 4.55673,0.8917 4.13856,-2.6636 2.19256,-5.6566 8.06265,-1.8004 0.0643,-0.5111 0.6004,-5.1909 4.01522,-3.578 -3.05565,-2.9475 3.71505,-4.7025 -1.07212,-2.4648 0.73975,-1.6925 6.51875,-1.5675 4.02601,1.2722 1.10427,-1.3858 -0.12863,-7.4739 6.73317,-0.9031 8.22347,-3.7199 8.18598,-6.5199 3.39876,0.8746 0.27876,0.074 5.82721,7.0196 7.69813,-0.8689 7.99836,8.3202 1.95663,-3.294 2.18728,-0.7043 8.5451,1.0734 6.07922,2.4308 10.22301,-1.2438 2.21937,1.8458 5.32868,-0.3408 2.13362,-2.1297 4.90512,3.3224 3.87587,-2.7147 4.81398,1.3971 4.87298,4.9694 3.82231,0.2499 2.43919,3.277 6.05231,-0.2045 0.0429,2.107 6.15424,4.5548 3.76332,-0.2328 4.38513,4.1573 13.21438,3.6631 64.56562,43.8444 45.85644,31.0375 11.33278,7.65 2.71256,1.8401 89.55241,60.3087 5.90222,1.6584 2.95384,3.2315 -1.8602,6.8152 0.78263,0.8405 0.11261,0.1193 -12.30842,27.4425 -1.42596,5.0035 -5.01238,17.5548 -5.04992,13.636 0.0643,21.9165 -1.47957,1.5675 1.42596,1.6016 -0.059,11.3302 1.75838,5.9065 -4.99626,18.8554 -4.10642,26.2839 -0.59501,34.11 -0.75054,23.5124 4.53522,46.8657 8.04663,61.6377 3.5113,30.1913 5.10353,32.02 3.42022,26.7439 -3.03425,26.0681 -13.20365,41.75435 -16.8383,40.09035 -14.14726,30.28783 -0.30022,7.11047 -3.774,2.93623 -3.46309,-0.67583 -6.58843,1.90254 -12.79087,4.50941 -15.19258,7.82613 -7.5748,5.1511 -21.24489,17.07773 -16.54352,16.46432 -11.07542,13.744 -1.8334,4.06069 -0.39665,5.78724 -2.24622,8.22939 -6.31506,8.86536 -2.80364,3.94148 -0.43964,4.41283 -1.51709,0.17039 -0.61647,1.7719 1.12573,0.63043 -3.11466,2.28307 -0.6004,5.95758 -6.96366,5.09443 -5.90228,2.26034 -3.41483,5.49759 v 2.91915 l 3.85975,5.07165 -2.73397,0.92008 -2.01567,6.72429 -2.08001,1.78328 -0.31091,7.08214 -2.49279,2.89076 -1.97275,10.59763 -9.23135,1.38012 -3.5167,6.26425 7.17809,7.72959 0.58972,15.14103 -5.22141,18.99164 -0.12334,8.42245 -2.31051,3.8903 -0.9167,7.74662 -2.02635,6.19045 -6.1757,9.75139 -6.66878,8.01925 -3.64004,9.3595 0.55758,3.7427 -5.21613,2.37395 -1.39376,-2.39097 1.24367,-4.02104 -3.16286,-5.5089 -4.93198,0.86895 -5.98263,3.50983 -2.58393,4.58317 1.05071,2.44214 2.05855,0.27258 -2.83589,3.0612 5.05526,-1.35173 0.69688,0.95413 -2.4016,1.84576 -3.5435,0.28965 0.76661,1.38007 3.99915,-0.72691 1.23299,1.55611 -4.5996,1.4028 -0.35917,4.00392 2.23549,0.55657 3.10392,-2.05025 0.86843,2.17517 1.98348,-0.17039 -0.68615,2.30581 -1.79057,-0.006 0.15014,1.6527 -0.9757,-0.67579 -1.98348,1.59016 -1.14185,6.9799 -4.62102,3.5666 -7.62845,13.15898 -3.43624,12.28437 1.49029,2.33419 -11.40245,21.54168 -4.37979,14.1018 0.47711,3.66313 -3.01278,0.81218 -4.19751,6.78678 -9.60659,16.93002 -1.42062,9.93315 -7.27996,10.70553 -1.59217,3.6745 1.31335,0.94276 -2.06389,-0.2499 -1.9728,3.03277 -1.91914,-3.47002 -5.03913,1.52772 1.96206,-2.68639 -1.12578,-1.91385 -5.23748,-1.62431 -1.39926,2.16381 -2.1121,2.40804 1.35627,1.40846 -1.3992,0.63043 2.44457,3.23719 -1.6297,-0.19877 -1.72618,2.03888 0.31096,1.22105 2.64283,-0.51682 -1.1472,3.32812 -3.00204,0.46565 0.63259,-2.53868 -2.82521,-0.95407 -3.95628,1.82308 -2.73402,3.28261 -2.94305,0.40326 -6.21852,-1.60728 -1.84952,0.63613 -0.80409,-3.55529 -1.53322,8.66098 -2.39626,-0.5793 -1.1151,0.33506 -0.78802,-1.11885 -1.24367,0.33512 2.20324,2.08429 1.25985,-0.18175 1.46349,0.6816 -1.89239,2.54999 5.79506,2.43644 2.1711,-2.60683 -5.47337,-0.0738 1.37235,-6.86634 1.66723,-0.69286 -1.36701,-0.0625 3.57031,-0.76106 5.0552,2.44786 4.73362,-2.77156 -0.24656,1.26086 1.16326,0.0795 -2.10676,1.75494 0.16082,2.24332 -2.29444,-0.17604 -3.9724,6.95145 -4.95334,12.93748 1.23294,3.03276 -2.35872,-0.65305 0.35912,2.39097 -3.21647,0.52247 0.3967,2.10132 -1.84946,1.93098 0.0214,-2.58403 -4.92658,0.70988 -8.5183,10.75099 -2.52493,5.27037 v 5.19091 l -2.32124,3.59499 0.70227,1.53344 -2.66974,1.68674 -0.76655,-1.93098 -7.13527,1.40845 -4.77645,10.99523 -1.79591,1.34597 -1.42595,2.76019 -1.45815,0.13063 -0.96497,-5.19662 1.9192,-4.23679 -2.78229,-2.83965 -8.11625,-3.39621 3.79546,-6.5085 0.72369,-0.89734 1.0829,-2.19791 -2.5732,1.9026 -0.9435,1.05637 -1.43668,2.95885 -2.04248,2.07869 1.32413,2.20356 0.15009,1.92528 -4.04742,0.73267 -0.12328,1.81166 -2.1765,0.5339 -0.4557,1.52772 -4.1439,0.64745 0.85775,0.78368 -3.92948,1.42554 -1.12576,2.76584 -3.03422,-0.0284 -5.66638,3.83353 -1.1633,-0.16468 -0.86845,-0.49409 -0.0429,-0.60204 0.47176,-0.46569 0.0375,-0.4657 -0.32701,-0.62472 -1.2169,-0.5111 -0.84701,0.017 -1.11505,0.24984 -0.43423,0.45999 0.0215,0.43736 0.20907,0.0284 0.4235,-0.70994 0.41278,-0.0852 1.79052,0.69292 0.56288,0.35209 0.0965,0.39189 -0.65402,0.17605 -0.47711,0.37482 -0.16619,0.39184 0.20372,0.40326 0.46102,0.0398 0.5468,0.4373 0.79877,0.3237 -0.35382,0.6816 -1.10969,0.2896 -1.16865,-0.15902 -0.29485,-0.43736 0.78804,-0.93134 -0.23052,-0.31804 -1.13648,-0.27834 -0.87382,0.13629 -6.05772,2.41941 -1.94061,2.27742 -3.85979,4.5378 -1.30267,5.16818 1.37236,1.2267 -2.5303,4.25387 -3.02886,1.00519 -1.52248,5.59418 -7.70348,9.00736 -3.15216,6.55966 -0.20371,0.83481 -2.46598,10.06949 -0.21443,11.71072 1.96742,4.08342 1.91381,0.23288 -2.28371,1.07339 -1.09896,2.78287 -1.57073,9.27433 -5.91833,4.62863 -11.32204,34.4735 -9.83709,6.71863 -4.15464,5.78724 -6.75998,4.37873 -7.17813,10.17169 -11.16658,19.66752 -2.72865,8.46782 -0.60041,9.18345 1.80659,10.1774 -2.86267,-1.45963 -0.46103,-1.85713 -2.42845,-0.56794 -1.52783,-2.22059 -1.29196,-0.0739 0.97031,-0.83486 -0.58433,-2.51024 -3.03958,2.52161 -3.89195,-0.57931 -0.73979,-0.95978 -0.54144,-7.27521 -3.19505,-5.96899 -2.36412,-0.45999 -5.15174,-2.03323 -6.51339,3.77104 -5.81112,-7.22409 -5.8969,-4.00391 -1.15257,0.85759 -3.21649,-3.72562 -3.85979,-0.13629 -0.55216,-1.28359 -4.10103,1.50505 -0.65937,-1.0393 -5.9934,4.5321 -5.76823,-1.52207 -1.53319,0.49414 -1.72618,4.56044 -5.80576,0.60769 0.12329,2.08435 -0.93278,-1.67543 -1.10969,2.07298 -1.22762,-1.18129 -5.12494,0.68715 0.93278,-1.59586 -2.6268,0.34643 1.24371,-1.17564 -1.29732,0.31804 -0.67546,-1.51069 -1.35092,2.16385 1.07752,1.28919 -1.84948,-0.39184 -1.10433,2.10703 -0.82556,-2.85677 -0.2466,1.08475 -2.407,-0.0681 -1.8066,-1.81738 -0.47711,1.71514 -2.79299,-3.40759 -3.79009,-1.07905 0.39134,-1.43118 -1.69402,0.31804 0.25732,-1.45392 -1.35629,1.32329 -0.3002,-1.87416 -2.53567,0.0625 -2.61072,-2.1241 -6.42225,1.96503 -1.91381,4.66844 -1.45278,-1.55612 -2.65896,0.11927 0.2037,1.66401 -1.59752,-0.38619 -0.50928,1.64134 -2.73401,-2.25469 -0.86309,1.22105 -1.12577,-1.55045 -3.39875,0.11355 -5.66638,-6.42898 -2.5035,0.97686 0.23587,-3.33379 -3.62927,-0.27823 -0.0322,2.3058 -3.33979,-3.30539 -0.55752,-0.55092 -11.11832,-2.78852 -3.7633,0.22151 -0.43959,-0.23853 -1.367,-3.02711 -1.56536,0.27829 -0.34309,1.64699 -1.75299,0.33511 -2.35339,0.44862 -4.36906,-1.36299 -1.39382,1.64133 -1.53319,-1.5505 -1.02928,1.1132 -1.62968,-0.80077 -7.3604,6.87761 -4.93195,-0.80642 -2.48206,-2.45351 -5.6771,-2.12976 -0.79876,-0.68715 -3.85979,-3.31676 0.25196,-4.9637 -1.35629,0.64174 -2.29978,-1.44255 -4.10639,2.10708 -3.29154,-3.91309 -1.01319,-0.0738 -1.44742,0.37482 -1.73691,4.33332 -0.23587,0.006 -5.24287,-3.06115 -7.02803,1.28919 -3.50597,-3.94713 -0.51464,-0.26121 -2.92701,4.16293 -1.68866,-1.43684 -0.31092,-3.40759 -4.454844,-1.92533 -0.150102,-0.2215 -0.187627,-0.27824 -2.058549,-7.14463 -7.99298,2.56136 -2.331951,0.31239 -6.170292,-4.71385 -4.025978,0.81218 -3.146796,-0.74404 -2.937727,-0.69852 0.262681,-2.37965 -4.59958,-1.99908 0.905981,-3.24296 -3.591748,0.81789 -2.530304,2.79989 0.01072,-3.34515 -1.720815,-1.97639 -2.449895,0.36916 -1.758344,-2.40805 -0.691551,-0.20443 -4.535247,2.14673 0.466389,2.69204 -5.382256,-1.40845 0.01609,-3.1975 5.130291,-2.18083 -1.088241,-1.72089 -3.709681,-0.73262 -2.691128,-0.5452 -2.090718,1.14724 -2.605358,-1.82874 0.192987,-1.47094 0.01608,-0.10225 5.339371,-10.71689 -0.659382,-2.20356 -1.651127,-0.51116 -1.795874,-0.17033 -0.112578,-0.47706 0.922063,-5.00922 0.369892,-1.39143 1.870928,2.45346 1.576078,-0.50545 1.506391,-3.44169 -2.069276,-1.34596 -1.50639,-5.74749 0.739796,-2.22058 3.023496,-0.9655 0.262686,-2.66925 -2.932371,-2.35127 0.219796,-3.48144 2.471337,-4.61726 2.149685,-0.26692 -0.07505,-0.74404 -0.391335,-3.66879 -1.656498,-2.1582 -0.745152,-8.9563 -6.363285,-4.73653 -1.275873,-5.96328 0.47711,-1.07339 5.087412,-1.87416 1.37773,-10.87591 -2.262263,0.017 -0.718348,-1.87416 3.264739,-7.36608 2.642878,-1.67538 -5.907617,-2.85672 -0.841648,2.20927 -5.07669,1.16993 0.670103,-2.85672 -2.165767,-5.4351 3.286177,-7.10482 -1.479587,-2.74311 0.712988,-0.97686 -1.479582,-0.92574 0.82556,-3.11793 -2.508861,-1.69811 -0.241233,0.29531 -1.056083,1.31763 -2.117516,-4.48097 -3.307625,-0.19317 -1.447423,-2.1581 -3.323702,-0.89735 -7.489055,-0.39184 -2.691128,2.81125 -5.0874121,-0.13063 2.7340128,-3.23725 -3.9401981,1.39715 -4.67998912,-1.83445 1.18473763,-3.40759 -4.72287931,-2.9873 -4.3261728,-2.73745 -2.294432,-4.66839 -7.204932,1.32895 -0.493192,-0.3578 -0.750513,0.17039 z m 549.558462,-41.74871 -0.25196,-0.0852 0.0268,-0.19312 0.29483,-0.40327 1.26514,-0.33501 0.059,0.0283 -0.64327,0.84622 z m 43.66916,-19.70157 -0.12328,-0.0284 0.0268,-0.0681 0.0965,-0.0454 0.0483,0.0681 0.0268,0.0511 -0.0857,0.0283 z m 1.83879,-9.81389 -0.19296,-0.0568 -0.15014,-0.17605 -0.0804,-0.35208 0.30022,-0.3181 0.21443,-0.0284 0.20369,0.0568 0.15548,0.10219 0.12328,0.19312 -0.0536,0.19878 -0.38592,0.22151 z m 1.17399,4.91263 0.0536,-0.0852 h 0.1126 l 0.0857,0.0284 -0.005,0.0739 -0.13401,0.017 -0.11261,-0.0284 z m 2.49279,1.19266 -0.12328,-0.39184 -0.0268,-0.22151 0.0536,-0.19878 0.39671,-0.13063 0.19301,0.11355 0.0697,0.18741 v 0.20449 l -0.0697,0.18746 -0.50397,0.26687 z m 0.0107,0.8292 -0.63794,-0.11926 0.0536,-0.21586 0.20908,-0.0454 0.17155,-0.10219 0.31625,-0.30102 0.38069,-0.0796 0.51993,0.0909 -0.0107,0.20443 -0.0697,0.18741 -0.13401,0.17605 -0.42346,0.0398 -0.37529,0.18741 z m 2.20868,-0.58496 -0.20908,-0.0284 -0.17694,-0.0909 -0.11795,-0.17038 0.14475,-0.15903 0.38603,-0.0852 0.11255,0.0285 0.16616,0.10219 -0.0322,0.19883 -0.0911,0.17604 -0.18223,0.006 z m 0.73981,-1.61294 0.1125,-0.39756 v -0.19306 l 0.13402,-0.17039 0.20374,0.0568 -0.0107,0.20443 0.16087,0.37482 v 0.19883 l 0.0697,0.19307 0.0161,0.20443 -0.0804,0.18741 -0.19835,0.0398 -0.17695,-0.0739 -0.16076,-0.12492 -0.15548,0.12492 -0.24662,-0.31233 -0.0375,-0.19312 0.38063,-0.10219 z m 0.32698,1.06773 0.0321,-0.0795 0.10721,-0.0284 0.13407,0.0284 -0.0107,0.0738 -0.12868,0.0568 -0.0804,0.006 -0.0536,-0.0625 z m 6.50262,-37.67099 0.27342,-0.10224 0.26275,0.0852 -0.13407,0.24424 -0.25196,0.0341 -0.20374,-0.0625 0.0429,-0.19878 z m 18.40366,-43.51495 -0.0535,-0.14766 0.0643,-0.19878 0.10188,-0.0795 0.24128,0.017 0.16615,0.10224 0.0161,0.18741 -0.28955,0.2499 z m 5.78973,-16.6234 -0.21443,-0.35204 -0.005,-0.42028 0.12863,-0.14205 0.61118,-0.2896 0.27871,0.30667 0.17689,0.38619 -0.15009,0.19312 -0.20903,0.0738 -0.38603,0.28965 -0.21976,-0.034 z m 6.58842,-11.72208 -0.20369,-0.0738 -0.0965,-0.20448 0.0643,-0.19878 0.10722,-0.0852 0.23588,0.0227 0.16621,0.10225 0.0161,0.18741 z m 0.18768,3.53821 -0.0537,-0.15331 0.059,-0.19312 0.10721,-0.0852 0.23583,0.0228 0.17155,0.0965 0.0161,0.18741 -0.26269,0.18175 -0.26803,-0.0568 z m 0.61647,0.76672 -0.0536,-0.15332 0.0589,-0.19311 0.10721,-0.0852 0.24128,0.0171 0.16621,0.10224 0.0161,0.18741 -0.10721,0.17039 -0.23589,0.006 -0.19301,-0.0455 z m 2.85196,-18.242 -0.12868,-0.14194 -0.0107,-0.22151 -0.15009,-0.15902 -0.0429,-0.20449 0.17689,-0.13058 0.19301,0.0738 0.11255,0.17039 0.17155,0.10219 0.12868,0.13634 0.0643,0.18741 -0.10182,0.18741 -0.19841,-0.017 -0.21437,0.0284 z m 0.10721,5.71339 -0.21442,-0.0113 -0.0322,-0.11927 -0.0536,-0.14766 0.0643,-0.19882 0.10188,-0.0852 0.24117,0.0227 0.16621,0.10224 0.0161,0.18741 -0.10721,0.14771 z m 0.27337,-0.90866 -0.20908,-0.006 -0.0375,-0.11927 -0.0535,-0.15331 0.0643,-0.19312 0.10188,-0.0852 0.24122,0.017 0.16621,0.10224 0.0161,0.18741 -0.10721,0.15336 z m 0.82556,-5.02624 -0.20909,-0.0113 -0.0375,-0.11927 -0.0482,-0.15331 0.0589,-0.19317 0.10726,-0.0852 0.23589,0.017 0.16616,0.10224 0.0215,0.18741 -0.10721,0.15336 z m 0.0483,4.65707 -0.21442,-0.0114 -0.0322,-0.11927 -0.0536,-0.15336 0.059,-0.19307 0.10721,-0.0852 0.23589,0.017 0.17155,0.1079 0.0161,0.18175 -0.10722,0.15331 z m 5.98269,8.99605 -0.0536,-0.14765 0.059,-0.19878 0.10721,-0.0795 0.23584,0.017 0.17155,0.10225 0.0161,0.18741 -0.28949,0.2499 z m 1.04532,-0.59633 -0.20903,-0.0114 -0.0375,-0.11927 -0.0536,-0.14765 0.0643,-0.19878 0.10188,-0.0852 0.24117,0.0227 0.16621,0.10225 0.0161,0.18741 -0.10182,0.14765 z"
       class="fil1"
       id="uf_32"
       inkscape:label="mapEstado"
       stroke="#646464"
       fill="#808080"
       stroke-width="2.33586px"
       fill-opacity="0.8" /></g><g
     inkscape:groupmode="layer"
     id="layer2"
     inkscape:label="Nomes"
     style="display:inline"
     transform="translate(-76.515891,-17.642922)" /><g
     id="g12228"
     inkscape:label="Pins"
     style="display:none"
     transform="matrix(0.64458665,0,0,0.64458665,-582.71164,-203.80877)"><g
       id="g12321"
       inkscape:label="EixoInfraestrutura"
       style="display:inline"><path
         d="m 1623.8393,1639.7266 c 4.5382,-5.6794 14.8884,-19.4443 14.8884,-27.176 0,-9.3771 -7.6078,-16.9849 -16.985,-16.9849 -9.3771,0 -16.9849,7.6078 -16.9849,16.9849 0,7.7317 10.3501,21.4966 14.8883,27.176 1.0882,1.3534 3.1051,1.3534 4.1932,0 z m -2.0966,-32.8377 a 5.6616644,5.6616644 0 1 1 0,11.3233 5.6616644,5.6616644 0 1 1 0,-11.3233 z"
         id="path28212"
         style="fill-opacity:1;stroke-dasharray:none;stroke-opacity:1"
         inkscape:label="infraestrutura"
         stroke="#ffffff"
         fill="#0d6efd"
         stroke-width="1.68166px" /><path
         d="m 1954.0533,794.81543 c 6.2662,-7.84192 20.5576,-26.84818 20.5576,-37.52394 0,-12.94771 -10.5048,-23.45246 -23.4525,-23.45246 -12.9477,0 -23.4524,10.50475 -23.4524,23.45246 0,10.67576 14.2913,29.68202 20.5575,37.52394 1.5024,1.86886 4.2874,1.86886 5.7898,0 z m -2.8949,-45.34143 a 7.81749,7.81749 0 1 1 0,15.63498 7.81749,7.81749 0 1 1 0,-15.63498 z"
         id="path28212-4"
         style="fill-opacity:1;stroke-dasharray:none;stroke-opacity:1"
         inkscape:label="infraestrutura"
         stroke="#ffffff"
         fill="#0d6efd"
         stroke-width="2.322px" /><path
         d="m 1497.4589,1122.9927 c 6.2662,-7.842 20.5576,-26.8482 20.5576,-37.524 0,-12.9477 -10.5048,-23.4524 -23.4525,-23.4524 -12.9477,0 -23.4525,10.5047 -23.4525,23.4524 0,10.6758 14.2914,29.682 20.5576,37.524 1.5024,1.8688 4.2874,1.8688 5.7898,0 z m -2.8949,-45.3415 a 7.8175,7.8175 0 1 1 0,15.635 7.8175,7.8175 0 1 1 0,-15.635 z"
         id="path28212-2"
         style="fill-opacity:1;stroke-dasharray:none;stroke-opacity:1"
         inkscape:label="infraestrutura"
         stroke="#ffffff"
         fill="#0d6efd"
         stroke-width="2.322px" /><path
         d="m 1693.6518,746.65898 c 6.2662,-7.84192 20.5576,-26.84818 20.5576,-37.52394 0,-12.94771 -10.5048,-23.45246 -23.4525,-23.45246 -12.9477,0 -23.4525,10.50475 -23.4525,23.45246 0,10.67576 14.2914,29.68202 20.5576,37.52394 1.5024,1.86886 4.2874,1.86886 5.7898,0 z m -2.8949,-45.34143 a 7.81749,7.81749 0 1 1 0,15.63498 7.81749,7.81749 0 1 1 0,-15.63498 z"
         id="path28212-5"
         style="fill-opacity:1;stroke-dasharray:none;stroke-opacity:1"
         inkscape:label="infraestrutura"
         stroke="#ffffff"
         fill="#0d6efd"
         stroke-width="2.322px" /><path
         d="m 1370.8253,1476.1399 c 6.2662,-7.8419 20.5575,-26.8482 20.5575,-37.5239 0,-12.9477 -10.5047,-23.4525 -23.4524,-23.4525 -12.9477,0 -23.4525,10.5048 -23.4525,23.4525 0,10.6757 14.2914,29.682 20.5576,37.5239 1.5024,1.8689 4.2874,1.8689 5.7898,0 z m -2.8949,-45.3414 a 7.8175,7.8175 0 1 1 0,15.635 7.8175,7.8175 0 1 1 0,-15.635 z"
         id="path28212-11"
         style="fill-opacity:1;stroke-dasharray:none;stroke-opacity:1"
         inkscape:label="infraestrutura"
         stroke="#ffffff"
         fill="#0d6efd"
         stroke-width="2.322px" /><path
         d="m 1023.0288,1947.0029 c 6.2662,-7.8419 20.5575,-26.8481 20.5575,-37.5239 0,-12.9477 -10.5047,-23.4525 -23.4524,-23.4525 -12.9478,0 -23.45251,10.5048 -23.45251,23.4525 0,10.6758 14.29141,29.682 20.55761,37.5239 1.5024,1.8689 4.2874,1.8689 5.7898,0 z m -2.8949,-45.3414 a 7.8175,7.8175 0 1 1 0,15.635 7.8175,7.8175 0 1 1 0,-15.635 z"
         id="path28212-0"
         style="fill-opacity:1;stroke-dasharray:none;stroke-opacity:1"
         inkscape:label="infraestrutura"
         stroke="#ffffff"
         fill="#0d6efd"
         stroke-width="2.322px" /><path
         d="m 1329.8031,1695.5193 c 6.2662,-7.842 20.5576,-26.8482 20.5576,-37.524 0,-12.9477 -10.5048,-23.4524 -23.4525,-23.4524 -12.9477,0 -23.4524,10.5047 -23.4524,23.4524 0,10.6758 14.2913,29.682 20.5575,37.524 1.5024,1.8688 4.2874,1.8688 5.7898,0 z m -2.8949,-45.3415 a 7.8175,7.8175 0 1 1 0,15.635 7.8175,7.8175 0 1 1 0,-15.635 z"
         id="path28212-3"
         style="fill-opacity:1;stroke-dasharray:none;stroke-opacity:1"
         inkscape:label="infraestrutura"
         stroke="#ffffff"
         fill="#0d6efd"
         stroke-width="2.322px" /><path
         d="m 1229.9231,1399.4463 c 6.2662,-7.8419 20.5576,-26.8482 20.5576,-37.5239 0,-12.9477 -10.5048,-23.4525 -23.4525,-23.4525 -12.9477,0 -23.4525,10.5048 -23.4525,23.4525 0,10.6757 14.2914,29.682 20.5576,37.5239 1.5024,1.8689 4.2874,1.8689 5.7898,0 z m -2.8949,-45.3414 a 7.8175,7.8175 0 1 1 0,15.635 7.8175,7.8175 0 1 1 0,-15.635 z"
         id="path28212-6"
         style="fill-opacity:1;stroke-dasharray:none;stroke-opacity:1"
         inkscape:label="infraestrutura"
         stroke="#ffffff"
         fill="#0d6efd"
         stroke-width="2.322px" /><path
         d="m 1090.8045,1565.3185 c 6.2662,-7.8419 20.5575,-26.8482 20.5575,-37.5239 0,-12.9477 -10.5047,-23.4525 -23.4524,-23.4525 -12.9477,0 -23.4525,10.5048 -23.4525,23.4525 0,10.6757 14.2914,29.682 20.5576,37.5239 1.5024,1.8689 4.2874,1.8689 5.7898,0 z m -2.8949,-45.3414 a 7.8175,7.8175 0 1 1 0,15.635 7.8175,7.8175 0 1 1 0,-15.635 z"
         id="path28212-80"
         style="fill-opacity:1;stroke-dasharray:none;stroke-opacity:1"
         inkscape:label="infraestrutura"
         stroke="#ffffff"
         fill="#0d6efd"
         stroke-width="2.322px" /><path
         d="m 1495.6753,1235.3577 c 6.2662,-7.8419 20.5576,-26.8482 20.5576,-37.5239 0,-12.9477 -10.5048,-23.4525 -23.4525,-23.4525 -12.9477,0 -23.4524,10.5048 -23.4524,23.4525 0,10.6757 14.2913,29.682 20.5575,37.5239 1.5024,1.8689 4.2874,1.8689 5.7898,0 z m -2.8949,-45.3414 a 7.8175,7.8175 0 1 1 0,15.635 7.8175,7.8175 0 1 1 0,-15.635 z"
         id="path28212-58"
         style="fill-opacity:1;stroke-dasharray:none;stroke-opacity:1"
         inkscape:label="infraestrutura"
         stroke="#ffffff"
         fill="#0d6efd"
         stroke-width="2.322px" /><path
         d="m 1558.1003,1333.4542 c 6.2663,-7.842 20.5576,-26.8482 20.5576,-37.524 0,-12.9477 -10.5048,-23.4524 -23.4525,-23.4524 -12.9477,0 -23.4524,10.5047 -23.4524,23.4524 0,10.6758 14.2913,29.682 20.5575,37.524 1.5024,1.8688 4.2874,1.8688 5.7898,0 z m -2.8949,-45.3415 a 7.8175,7.8175 0 1 1 0,15.635 7.8175,7.8175 0 1 1 0,-15.635 z"
         id="path28212-35"
         style="fill-opacity:1;stroke-dasharray:none;stroke-opacity:1"
         inkscape:label="infraestrutura"
         stroke="#ffffff"
         fill="#0d6efd"
         stroke-width="2.322px" /><path
         d="m 1932.6505,1089.1048 c 6.2662,-7.8419 20.5575,-26.8482 20.5575,-37.5239 0,-12.9477 -10.5047,-23.4525 -23.4525,-23.4525 -12.9477,0 -23.4524,10.5048 -23.4524,23.4525 0,10.6757 14.2913,29.682 20.5575,37.5239 1.5025,1.8689 4.2874,1.8689 5.7899,0 z m -2.895,-45.3414 a 7.8175,7.8175 0 1 1 0,15.635 7.8175,7.8175 0 1 1 0,-15.635 z"
         id="path28212-51"
         style="fill-opacity:1;stroke-dasharray:none;stroke-opacity:1"
         inkscape:label="infraestrutura"
         stroke="#ffffff"
         fill="#0d6efd"
         stroke-width="2.322px" /><path
         d="m 1804.2333,427.3996 c 6.2662,-7.84192 20.5575,-26.84818 20.5575,-37.52394 0,-12.94771 -10.5047,-23.45246 -23.4524,-23.45246 -12.9477,0 -23.4525,10.50475 -23.4525,23.45246 0,10.67576 14.2913,29.68202 20.5576,37.52394 1.5024,1.86886 4.2874,1.86886 5.7898,0 z m -2.8949,-45.34143 a 7.81749,7.81749 0 1 1 0,15.63498 7.81749,7.81749 0 1 1 0,-15.63498 z"
         id="path28212-61"
         style="fill-opacity:1"
         inkscape:label="infraestrutura"
         fill="#0d6efd"
         stroke-width="0.122148px" /><path
         d="m 1506.3768,461.28747 c 6.2662,-7.84192 20.5575,-26.84818 20.5575,-37.52394 0,-12.94771 -10.5047,-23.45246 -23.4524,-23.45246 -12.9477,0 -23.4525,10.50475 -23.4525,23.45246 0,10.67576 14.2914,29.68202 20.5576,37.52394 1.5024,1.86886 4.2874,1.86886 5.7898,0 z m -2.8949,-45.34143 a 7.81749,7.81749 0 1 1 0,15.63498 7.81749,7.81749 0 1 1 0,-15.63498 z"
         id="path28212-73"
         style="fill-opacity:1"
         inkscape:label="infraestrutura"
         fill="#0d6efd"
         stroke-width="0.122148px" /><path
         d="m 1101.3097,863.95529 c 6.2662,-7.8419 20.5576,-26.8482 20.5576,-37.5239 0,-12.9477 -10.5048,-23.4525 -23.4525,-23.4525 -12.9477,0 -23.4524,10.5048 -23.4524,23.4525 0,10.6757 14.2913,29.682 20.5575,37.5239 1.5024,1.8689 4.2874,1.8689 5.7898,0 z m -2.8949,-45.3414 a 7.8175,7.8175 0 1 1 0,15.635 7.8175,7.8175 0 1 1 0,-15.635 z"
         id="path28212-58-6"
         style="display:inline;fill-opacity:1;stroke-dasharray:none;stroke-opacity:1"
         inkscape:label="infraestrutura"
         stroke="#ffffff"
         fill="#0d6efd"
         stroke-width="2.322px" /></g><g
       id="g12305"
       inkscape:label="EixoSocial"
       style="display:inline"><path
         d="m 1481.7788,644.99544 c 6.2662,-7.842 20.5575,-26.8482 20.5575,-37.524 0,-12.9477 -10.5047,-23.4524 -23.4524,-23.4524 -12.9477,0 -23.4525,10.5047 -23.4525,23.4524 0,10.6758 14.2914,29.682 20.5576,37.524 1.5024,1.8688 4.2874,1.8688 5.7898,0 z m -2.8949,-45.3415 a 7.8175,7.8175 0 1 1 0,15.635 7.8175,7.8175 0 1 1 0,-15.635 z"
         id="path28212-1"
         style="fill-opacity:1;stroke-dasharray:none;stroke-opacity:1"
         inkscape:label="social"
         stroke="#ffffff"
         fill="#198754"
         stroke-width="2.322px" /><path
         d="m 1059.0642,863.7201 c 6.2662,-7.842 20.5575,-26.8482 20.5575,-37.524 0,-12.9477 -10.5047,-23.4524 -23.4524,-23.4524 -12.9477,0 -23.4525,10.5047 -23.4525,23.4524 0,10.6758 14.2914,29.682 20.5576,37.524 1.5024,1.8688 4.2874,1.8688 5.7898,0 z m -2.8949,-45.3415 a 7.8175,7.8175 0 1 1 0,15.635 7.8175,7.8175 0 1 1 0,-15.635 z"
         id="path28212-1-74"
         style="display:inline;fill-opacity:1;stroke-dasharray:none;stroke-opacity:1"
         inkscape:label="social"
         stroke="#ffffff"
         fill="#198754"
         stroke-width="2.322px" /><path
         d="m 1336.9374,1798.9785 c 6.2662,-7.842 20.5576,-26.8482 20.5576,-37.524 0,-12.9477 -10.5048,-23.4524 -23.4525,-23.4524 -12.9477,0 -23.4525,10.5047 -23.4525,23.4524 0,10.6758 14.2914,29.682 20.5576,37.524 1.5024,1.8688 4.2874,1.8688 5.7898,0 z m -2.8949,-45.3415 a 7.8175,7.8175 0 1 1 0,15.635 7.8175,7.8175 0 1 1 0,-15.635 z"
         id="path28212-1-1"
         style="fill-opacity:1;stroke-dasharray:none;stroke-opacity:1"
         inkscape:label="social"
         stroke="#ffffff"
         fill="#198754"
         stroke-width="2.322px" /><path
         d="m 1658.138,1578.4594 c 4.6769,-5.8531 15.3437,-20.0389 15.3437,-28.0071 0,-9.6639 -7.8405,-17.5043 -17.5045,-17.5043 -9.6639,0 -17.5044,7.8404 -17.5044,17.5043 0,7.9682 10.6668,22.154 15.3437,28.0071 1.1215,1.3949 3.2,1.3949 4.3215,0 z m -2.1608,-33.8419 a 5.8348134,5.8348134 0 1 1 0,11.6696 5.8348134,5.8348134 0 1 1 0,-11.6696 z"
         id="path28212-1-2"
         style="fill-opacity:1;stroke-dasharray:none;stroke-opacity:1"
         inkscape:label="social"
         stroke="#ffffff"
         fill="#198754"
         stroke-width="1.73309px" /><path
         d="m 1695.4354,1513.607 c 6.2662,-7.842 20.5575,-26.8482 20.5575,-37.524 0,-12.9477 -10.5047,-23.4524 -23.4524,-23.4524 -12.9477,0 -23.4525,10.5047 -23.4525,23.4524 0,10.6758 14.2914,29.682 20.5576,37.524 1.5024,1.8688 4.2874,1.8688 5.7898,0 z m -2.8949,-45.3415 a 7.8175,7.8175 0 1 1 0,15.635 7.8175,7.8175 0 1 1 0,-15.635 z"
         id="path28212-1-4"
         style="fill-opacity:1;stroke-dasharray:none;stroke-opacity:1"
         inkscape:label="social"
         stroke="#ffffff"
         fill="#198754"
         stroke-width="2.322px" /><path
         d="m 1484.9739,828.71533 c 6.2662,-7.842 20.5575,-26.8482 20.5575,-37.524 0,-12.9477 -10.5047,-23.4524 -23.4524,-23.4524 -12.9477,0 -23.4525,10.5047 -23.4525,23.4524 0,10.6758 14.2914,29.682 20.5576,37.524 1.5024,1.8688 4.2874,1.8688 5.7898,0 z m -2.8949,-45.3415 a 7.8175,7.8175 0 1 1 0,15.635 7.8175,7.8175 0 1 1 0,-15.635 z"
         id="path28212-1-9"
         style="fill-opacity:1;stroke-dasharray:none;stroke-opacity:1"
         inkscape:label="social"
         stroke="#ffffff"
         fill="#198754"
         stroke-width="2.322px" /><path
         d="m 1361.9074,1160.4597 c 6.2662,-7.842 20.5576,-26.8482 20.5576,-37.524 0,-12.9477 -10.5048,-23.4524 -23.4525,-23.4524 -12.9477,0 -23.4524,10.5047 -23.4524,23.4524 0,10.6758 14.2913,29.682 20.5575,37.524 1.5024,1.8688 4.2874,1.8688 5.7898,0 z m -2.8949,-45.3415 a 7.8175,7.8175 0 1 1 0,15.635 7.8175,7.8175 0 1 1 0,-15.635 z"
         id="path28212-1-7"
         style="fill-opacity:1;stroke-dasharray:none;stroke-opacity:1"
         inkscape:label="social"
         stroke="#ffffff"
         fill="#198754"
         stroke-width="2.322px" /><path
         d="m 904.4739,1649.8943 c 4.44993,-5.569 14.59888,-19.0662 14.59888,-26.6475 0,-9.1948 -7.45991,-16.6547 -16.65469,-16.6547 -9.19477,0 -16.65469,7.4599 -16.65469,16.6547 0,7.5813 10.14895,21.0785 14.59888,26.6475 1.06694,1.3271 3.04468,1.3271 4.11162,0 z m -2.05581,-32.1991 a 5.5515733,5.5515733 0 1 1 0,11.1031 5.5515733,5.5515733 0 1 1 0,-11.1031 z"
         id="path28212-1-8"
         style="fill-opacity:1;stroke-dasharray:none;stroke-opacity:1"
         inkscape:label="social"
         stroke="#ffffff"
         fill="#198754"
         stroke-width="1.64896px" /><path
         d="m 1210.3038,1774.0085 c 6.2662,-7.842 20.5576,-26.8482 20.5576,-37.524 0,-12.9477 -10.5048,-23.4524 -23.4525,-23.4524 -12.9477,0 -23.4525,10.5047 -23.4525,23.4524 0,10.6758 14.2914,29.682 20.5576,37.524 1.5024,1.8688 4.2874,1.8688 5.7898,0 z m -2.8949,-45.3415 a 7.8175,7.8175 0 1 1 0,15.635 7.8175,7.8175 0 1 1 0,-15.635 z"
         id="path28212-1-84"
         style="fill-opacity:1;stroke-dasharray:none;stroke-opacity:1"
         inkscape:label="social"
         stroke="#ffffff"
         fill="#198754"
         stroke-width="2.322px" /><path
         d="m 2011.1276,686.02958 c 6.2662,-7.842 20.5576,-26.8482 20.5576,-37.524 0,-12.9477 -10.5048,-23.4524 -23.4525,-23.4524 -12.9477,0 -23.4525,10.5047 -23.4525,23.4524 0,10.6758 14.2914,29.682 20.5576,37.524 1.5024,1.8688 4.2874,1.8688 5.7898,0 z m -2.8949,-45.3415 a 7.8175,7.8175 0 1 1 0,15.635 7.8175,7.8175 0 1 1 0,-15.635 z"
         id="path28212-1-89"
         style="fill-opacity:1;stroke-dasharray:none;stroke-opacity:1"
         inkscape:label="social"
         stroke="#ffffff"
         fill="#198754"
         stroke-width="2.322px" /><path
         d="m 1228.1395,1677.6956 c 6.2662,-7.842 20.5576,-26.8482 20.5576,-37.524 0,-12.9477 -10.5048,-23.4524 -23.4525,-23.4524 -12.9477,0 -23.4524,10.5047 -23.4524,23.4524 0,10.6758 14.2913,29.682 20.5575,37.524 1.5024,1.8688 4.2874,1.8688 5.7898,0 z m -2.8949,-45.3415 a 7.8175,7.8175 0 1 1 0,15.635 7.8175,7.8175 0 1 1 0,-15.635 z"
         id="path28212-1-71"
         style="fill-opacity:1;stroke-dasharray:none;stroke-opacity:1"
         inkscape:label="social"
         stroke="#ffffff"
         fill="#198754"
         stroke-width="2.322px" /><path
         d="m 1743.5918,996.3711 c 6.2662,-7.842 20.5576,-26.8482 20.5576,-37.524 0,-12.9477 -10.5048,-23.4524 -23.4525,-23.4524 -12.9477,0 -23.4524,10.5047 -23.4524,23.4524 0,10.6758 14.2913,29.682 20.5575,37.524 1.5024,1.8688 4.2874,1.8688 5.7898,0 z m -2.8949,-45.3415 a 7.8175,7.8175 0 1 1 0,15.635 7.8175,7.8175 0 1 1 0,-15.635 z"
         id="path28212-1-29"
         style="fill-opacity:1;stroke-dasharray:none;stroke-opacity:1"
         inkscape:label="social"
         stroke="#ffffff"
         fill="#198754"
         stroke-width="2.322px" /></g><g
       id="g12292"
       inkscape:label="EixoMulher"
       style="display:inline"
       transform="translate(-4.3112069,6.4668127)"
       stroke="#5500d4"
       fill="#00ffff"><path
         d="m 1506.9539,1711.8472 c 5.5851,-6.9895 18.323,-23.9298 18.323,-33.4452 0,-11.5404 -9.3629,-20.9033 -20.9032,-20.9033 -11.5404,0 -20.9034,9.3629 -20.9034,20.9033 0,9.5154 12.738,26.4557 18.3231,33.4452 1.3391,1.6658 3.8214,1.6658 5.1605,0 z m -2.5802,-40.413 a 6.9678,6.9678 0 1 1 0,13.9356 6.9678,6.9678 0 1 1 0,-13.9356 z"
         id="path28212-7"
         style="fill-opacity:1;stroke-dasharray:none;stroke-opacity:1"
         inkscape:label="mulher"
         stroke="#5500d4"
         fill="#00ffff"
         stroke-width="2.06961px" /><path
         d="m 1970.1055,678.89525 c 6.2662,-7.8419 20.5575,-26.8481 20.5575,-37.5239 0,-12.9477 -10.5047,-23.4525 -23.4524,-23.4525 -12.9477,0 -23.4525,10.5048 -23.4525,23.4525 0,10.6758 14.2913,29.682 20.5576,37.5239 1.5024,1.8689 4.2874,1.8689 5.7898,0 z m -2.8949,-45.3414 a 7.8175,7.8175 0 1 1 0,15.635 7.8175,7.8175 0 1 1 0,-15.635 z"
         id="path28212-7-8"
         style="fill-opacity:1;stroke-dasharray:none;stroke-opacity:1"
         inkscape:label="mulher"
         stroke="#5500d4"
         fill="#00ffff"
         stroke-width="2.322px" /><path
         d="m 1015.8945,1732.9863 c 6.2662,-7.8419 20.5575,-26.8481 20.5575,-37.5239 0,-12.9477 -10.5047,-23.4525 -23.4524,-23.4525 -12.9477,0 -23.4525,10.5048 -23.4525,23.4525 0,10.6758 14.2913,29.682 20.5576,37.5239 1.5024,1.8689 4.2874,1.8689 5.7898,0 z m -2.8949,-45.3414 a 7.8175,7.8175 0 1 1 0,15.635 7.8175,7.8175 0 1 1 0,-15.635 z"
         id="path28212-7-88"
         style="fill-opacity:1;stroke-dasharray:none;stroke-opacity:1"
         inkscape:label="mulher"
         stroke="#5500d4"
         fill="#00ffff"
         stroke-width="2.322px" /><path
         d="m 1410.0639,1242.504 c 6.2662,-7.8419 20.5575,-26.8481 20.5575,-37.5239 0,-12.9477 -10.5047,-23.4525 -23.4524,-23.4525 -12.9477,0 -23.4525,10.5048 -23.4525,23.4525 0,10.6758 14.2913,29.682 20.5576,37.5239 1.5024,1.8689 4.2874,1.8689 5.7898,0 z m -2.8949,-45.3414 a 7.8175,7.8175 0 1 1 0,15.635 7.8175,7.8175 0 1 1 0,-15.635 z"
         id="path28212-7-89"
         style="fill-opacity:1;stroke-dasharray:none;stroke-opacity:1"
         inkscape:label="mulher"
         stroke="#5500d4"
         fill="#00ffff"
         stroke-width="2.322px" /><path
         d="m 1345.8553,1488.6369 c 6.2662,-7.8419 20.5575,-26.8481 20.5575,-37.5239 0,-12.9477 -10.5047,-23.4525 -23.4524,-23.4525 -12.9477,0 -23.4525,10.5048 -23.4525,23.4525 0,10.6758 14.2914,29.682 20.5576,37.5239 1.5024,1.8689 4.2874,1.8689 5.7898,0 z m -2.8949,-45.3414 a 7.8175,7.8175 0 1 1 0,15.635 7.8175,7.8175 0 1 1 0,-15.635 z"
         id="path28212-7-0"
         style="fill-opacity:1;stroke-dasharray:none;stroke-opacity:1"
         inkscape:label="mulher"
         stroke="#5500d4"
         fill="#00ffff"
         stroke-width="2.322px" /><path
         d="m 1884.494,1064.1468 c 6.2662,-7.8419 20.5576,-26.8481 20.5576,-37.5239 0,-12.9477 -10.5048,-23.4525 -23.4525,-23.4525 -12.9477,0 -23.4525,10.5048 -23.4525,23.4525 0,10.6758 14.2914,29.682 20.5576,37.5239 1.5024,1.8689 4.2874,1.8689 5.7898,0 z m -2.8949,-45.3414 a 7.8175,7.8175 0 1 1 0,15.635 7.8175,7.8175 0 1 1 0,-15.635 z"
         id="path28212-7-9"
         style="fill-opacity:1;stroke-dasharray:none;stroke-opacity:1"
         inkscape:label="mulher"
         stroke="#5500d4"
         fill="#00ffff"
         stroke-width="2.322px" /><path
         d="m 1984.374,846.55101 c 6.2663,-7.8419 20.5576,-26.8481 20.5576,-37.5239 0,-12.9477 -10.5048,-23.4525 -23.4525,-23.4525 -12.9477,0 -23.4524,10.5048 -23.4524,23.4525 0,10.6758 14.2913,29.682 20.5575,37.5239 1.5024,1.8689 4.2874,1.8689 5.7898,0 z m -2.8949,-45.3414 a 7.8175,7.8175 0 1 1 0,15.635 7.8175,7.8175 0 1 1 0,-15.635 z"
         id="path28212-7-86"
         style="fill-opacity:1;stroke-dasharray:none;stroke-opacity:1"
         inkscape:label="mulher"
         stroke="#5500d4"
         fill="#00ffff"
         stroke-width="2.322px" /><path
         d="m 1497.4589,932.16247 c 6.2662,-7.8419 20.5576,-26.8481 20.5576,-37.5239 0,-12.9477 -10.5048,-23.4525 -23.4525,-23.4525 -12.9477,0 -23.4525,10.5048 -23.4525,23.4525 0,10.6758 14.2914,29.682 20.5576,37.5239 1.5024,1.8689 4.2874,1.8689 5.7898,0 z m -2.8949,-45.3414 a 7.8175,7.8175 0 1 1 0,15.635 7.8175,7.8175 0 1 1 0,-15.635 z"
         id="path28212-7-1"
         style="fill-opacity:1;stroke-dasharray:none;stroke-opacity:1"
         inkscape:label="mulher"
         stroke="#5500d4"
         fill="#00ffff"
         stroke-width="2.322px" /><path
         d="m 1053.1205,906.20079 c 6.2662,-7.8419 20.5576,-26.8481 20.5576,-37.5239 0,-12.9477 -10.5048,-23.4525 -23.4525,-23.4525 -12.9477,0 -23.4525,10.5048 -23.4525,23.4525 0,10.6758 14.2914,29.682 20.5576,37.5239 1.5024,1.8689 4.2874,1.8689 5.7898,0 z m -2.8949,-45.3414 a 7.8175,7.8175 0 1 1 0,15.635 7.8175,7.8175 0 1 1 0,-15.635 z"
         id="path28212-7-1-9"
         style="display:inline;fill-opacity:1;stroke-dasharray:none;stroke-opacity:1"
         inkscape:label="mulher"
         stroke="#5500d4"
         fill="#00ffff"
         stroke-width="2.322px" /></g><g
       id="g12281"
       inkscape:label="EixoPolicial"
       style="display:inline"><path
         d="m 1768.5618,1294.2156 c 6.2662,-7.8419 20.5576,-26.8482 20.5576,-37.524 0,-12.9477 -10.5048,-23.4524 -23.4525,-23.4524 -12.9477,0 -23.4525,10.5047 -23.4525,23.4524 0,10.6758 14.2914,29.6821 20.5576,37.524 1.5024,1.8688 4.2874,1.8688 5.7898,0 z m -2.8949,-45.3415 a 7.8175,7.8175 0 1 1 0,15.635 7.8175,7.8175 0 1 1 0,-15.635 z"
         id="path28212-8"
         style="display:inline;fill-opacity:1;stroke-dasharray:none;stroke-opacity:1"
         inkscape:label="policial"
         transform="translate(-5.1712726e-6)"
         stroke="#ffffff"
         fill="#dc3545"
         stroke-width="2.322px" /><path
         d="m 1263.423,1898.4474 c 4.1889,-5.2423 13.7428,-17.948 13.7428,-25.0848 0,-8.6556 -7.0225,-15.678 -15.6781,-15.678 -8.6555,0 -15.678,7.0224 -15.678,15.678 0,7.1368 9.5538,19.8425 13.7428,25.0848 1.0043,1.2493 2.8661,1.2493 3.8705,0 z m -1.9353,-30.3108 a 5.2260106,5.2260106 0 1 1 0,10.452 5.2260106,5.2260106 0 1 1 0,-10.452 z"
         id="path28212-8-4"
         style="fill-opacity:1;stroke-dasharray:none;stroke-opacity:1"
         inkscape:label="policial"
         stroke="#ffffff"
         fill="#dc3545"
         stroke-width="1.55226px" /><path
         d="m 1552.711,1460.4332 c 5.1424,-6.4356 16.8708,-22.0334 16.8708,-30.7946 0,-10.6257 -8.6209,-19.2465 -19.2466,-19.2465 -10.6257,0 -19.2466,8.6208 -19.2466,19.2465 0,8.7612 11.7284,24.359 16.8709,30.7946 1.2329,1.5336 3.5185,1.5336 4.7515,0 z m -2.3758,-37.2101 a 6.4155317,6.4155317 0 1 1 0,12.831 6.4155317,6.4155317 0 1 1 0,-12.831 z"
         id="path28212-8-1"
         style="fill-opacity:1;stroke-dasharray:none;stroke-opacity:1"
         inkscape:label="policial"
         stroke="#ffffff"
         fill="#dc3545"
         stroke-width="1.90558px" /><path
         d="m 1211.6879,1556.4342 c 4.5003,-5.6319 14.7642,-19.2819 14.7642,-26.9491 0,-9.2989 -7.5444,-16.8432 -16.8432,-16.8432 -9.2989,0 -16.8433,7.5443 -16.8433,16.8432 0,7.6672 10.2639,21.3172 14.7642,26.9491 1.079,1.3422 3.0791,1.3422 4.1581,0 z m -2.079,-32.5635 a 5.6144069,5.6144069 0 1 1 0,11.2288 5.6144069,5.6144069 0 1 1 0,-11.2288 z"
         id="path28212-8-7"
         style="fill-opacity:1;stroke-dasharray:none;stroke-opacity:1"
         inkscape:label="policial"
         stroke="#ffffff"
         fill="#dc3545"
         stroke-width="1.66762px" /><path
         d="m 1402.6311,1542.4096 c 5.1424,-6.4356 16.8708,-22.0334 16.8708,-30.7946 0,-10.6257 -8.6209,-19.2465 -19.2466,-19.2465 -10.6257,0 -19.2466,8.6208 -19.2466,19.2465 0,8.7612 11.7284,24.359 16.8709,30.7946 1.2329,1.5336 3.5185,1.5336 4.7515,0 z m -2.3758,-37.2101 a 6.4155317,6.4155317 0 1 1 0,12.831 6.4155317,6.4155317 0 1 1 0,-12.831 z"
         id="path28212-8-15"
         style="fill-opacity:1;stroke-dasharray:none;stroke-opacity:1"
         inkscape:label="policial"
         stroke="#ffffff"
         fill="#dc3545"
         stroke-width="1.90558px" /><path
         d="m 1167.9409,1774.0107 c 6.2662,-7.8419 20.5576,-26.8482 20.5576,-37.524 0,-12.9477 -10.5048,-23.4524 -23.4525,-23.4524 -12.9477,0 -23.4525,10.5047 -23.4525,23.4524 0,10.6758 14.2914,29.6821 20.5576,37.524 1.5024,1.8688 4.2874,1.8688 5.7898,0 z m -2.8949,-45.3415 a 7.8175,7.8175 0 1 1 0,15.635 7.8175,7.8175 0 1 1 0,-15.635 z"
         id="path28212-8-0"
         style="fill-opacity:1;stroke-dasharray:none;stroke-opacity:1"
         inkscape:label="policial"
         stroke="#ffffff"
         fill="#dc3545"
         stroke-width="2.322px" /><path
         d="m 1625.9706,1392.7848 c 4.0187,-5.0292 13.1841,-17.2184 13.1841,-24.0651 0,-8.3037 -6.737,-15.0406 -15.0407,-15.0406 -8.3037,0 -15.0407,6.7369 -15.0407,15.0406 0,6.8467 9.1655,19.0359 13.1842,24.0651 0.9635,1.1985 2.7496,1.1985 3.7131,0 z m -1.8566,-29.0786 a 5.0135634,5.0135634 0 1 1 0,10.0271 5.0135634,5.0135634 0 1 1 0,-10.0271 z"
         id="path28212-8-9"
         style="fill-opacity:1;stroke-dasharray:none;stroke-opacity:1"
         inkscape:label="policial"
         stroke="#ffffff"
         fill="#dc3545"
         stroke-width="1.48916px" /><path
         d="m 1592.3639,1574.004 c 4.9819,-6.2347 16.3442,-21.3455 16.3442,-29.8332 0,-10.294 -8.3518,-18.6457 -18.6458,-18.6457 -10.294,0 -18.6457,8.3517 -18.6457,18.6457 0,8.4877 11.3622,23.5985 16.3441,29.8332 1.1945,1.4858 3.4087,1.4858 4.6032,0 z m -2.3016,-36.0485 a 6.2152505,6.2152505 0 1 1 0,12.4305 6.2152505,6.2152505 0 1 1 0,-12.4305 z"
         id="path28212-8-72"
         style="fill-opacity:1;stroke-dasharray:none;stroke-opacity:1"
         inkscape:label="policial"
         stroke="#ffffff"
         fill="#dc3545"
         stroke-width="1.84609px" /><path
         d="m 1388.6467,1362.8673 c 6.2662,-7.8419 20.5576,-26.8482 20.5576,-37.524 0,-12.9477 -10.5048,-23.4524 -23.4525,-23.4524 -12.9477,0 -23.4525,10.5047 -23.4525,23.4524 0,10.6758 14.2914,29.6821 20.5576,37.524 1.5024,1.8688 4.2874,1.8688 5.7898,0 z m -2.8949,-45.3415 a 7.8175,7.8175 0 1 1 0,15.635 7.8175,7.8175 0 1 1 0,-15.635 z"
         id="path28212-8-8"
         style="fill-opacity:1;stroke-dasharray:none;stroke-opacity:1"
         inkscape:label="policial"
         stroke="#ffffff"
         fill="#dc3545"
         stroke-width="2.322px" /><path
         d="m 1086.4967,911.35643 c 6.0722,-7.59909 19.9211,-26.01689 19.9211,-36.36213 0,-12.54679 -10.1795,-22.72625 -22.7263,-22.72625 -12.5468,0 -22.7263,10.17946 -22.7263,22.72625 0,10.34524 13.8488,28.76304 19.921,36.36213 1.4559,1.81093 4.1547,1.81093 5.6105,0 z m -2.8052,-43.93757 a 7.5754425,7.5754425 0 1 1 0,15.15088 7.5754425,7.5754425 0 1 1 0,-15.15088 z"
         id="path28212-8-40"
         style="display:inline;fill-opacity:1;stroke-dasharray:none;stroke-opacity:1"
         inkscape:label="policial"
         stroke="#ffffff"
         fill="#dc3545"
         stroke-width="2.2501px" /></g></g></svg>
