<?xml version="1.0" encoding="UTF-8" standalone="no"?>
<svg
   viewBox="0 0 640 640"
   version="1.1"
   id="svg4"
   sodipodi:docname="filter-circle-clock-solid-full.svg"
   inkscape:version="1.2.1 (9c6d41e410, 2022-07-14)"
   xmlns:inkscape="http://www.inkscape.org/namespaces/inkscape"
   xmlns:sodipodi="http://sodipodi.sourceforge.net/DTD/sodipodi-0.dtd"
   xmlns="http://www.w3.org/2000/svg"
   xmlns:svg="http://www.w3.org/2000/svg">
  <defs
     id="defs8" />
  <sodipodi:namedview
     id="namedview6"
     pagecolor="#ffffff"
     bordercolor="#000000"
     borderopacity="0.25"
     inkscape:showpageshadow="2"
     inkscape:pageopacity="0.0"
     inkscape:pagecheckerboard="0"
     inkscape:deskcolor="#d1d1d1"
     showgrid="false"
     inkscape:zoom="0.47232523"
     inkscape:cx="398.03082"
     inkscape:cy="228.656"
     inkscape:window-width="1920"
     inkscape:window-height="1009"
     inkscape:window-x="-8"
     inkscape:window-y="-8"
     inkscape:window-maximized="1"
     inkscape:current-layer="svg4" />
  <!--!Font Awesome Free 7.3.1 by @fontawesome - https://fontawesome.com License - https://fontawesome.com/license/free Copyright 2026 Fonticons, Inc.-->
  <g
     id="g475"
     transform="translate(-32)">
    <path
       id="path471"
       style="fill:#000000"
       d="m 496,384 c 8.8,0 16,7.2 16,16 v 48 h 32 c 8.8,0 16,7.2 16,16 0,8.8 -7.2,16 -16,16 h -48 c -8.8,0 -16,-7.2 -16,-16 v -64 c 0,-8.8 7.2,-16 16,-16 z m 144,80 c 0,-79.5 -64.5,-144 -144,-144 -79.5,0 -144,64.5 -144,144 0,79.5 64.5,144 144,144 79.5,0 144,-64.5 144,-144 z M 96,128 c -12.9,0 -24.6,7.8 -29.6,19.8 -5,12 -2.2,25.7 7,34.8 L 256,365.3 V 480 c 0,8.5 3.4,16.6 9.4,22.6 l 64,64 c 2.5,2.5 5.3,4.5 8.3,6 -21.2,-30.9 -33.6,-68.3 -33.6,-108.6 0,-99.4 75.5,-181.1 172.3,-191 l 90.4,-90.4 c 9.2,-9.2 11.9,-22.9 6.9,-34.9 -5,-12 -16.8,-19.7 -29.7,-19.7 z" />
  </g>
</svg>
