<?xml version="1.0" encoding="UTF-8" standalone="no"?>
<svg
   viewBox="0 0 640 640"
   version="1.1"
   id="svg4"
   sodipodi:docname="inauguracao.svg"
   inkscape:version="1.2.1 (9c6d41e410, 2022-07-14)"
   xmlns:inkscape="http://www.inkscape.org/namespaces/inkscape"
   xmlns:sodipodi="http://sodipodi.sourceforge.net/DTD/sodipodi-0.dtd"
   xmlns="http://www.w3.org/2000/svg"
   xmlns:svg="http://www.w3.org/2000/svg">
  <defs
     id="defs8" />
  <sodipodi:namedview
     id="namedview6"
     pagecolor="#ffffff"
     bordercolor="#000000"
     borderopacity="0.25"
     inkscape:showpageshadow="2"
     inkscape:pageopacity="0.0"
     inkscape:pagecheckerboard="0"
     inkscape:deskcolor="#d1d1d1"
     showgrid="false"
     inkscape:zoom="0.11808131"
     inkscape:cx="16.937481"
     inkscape:cy="110.09363"
     inkscape:window-width="1920"
     inkscape:window-height="1009"
     inkscape:window-x="1912"
     inkscape:window-y="-8"
     inkscape:window-maximized="1"
     inkscape:current-layer="svg4" />
  <!--!Font Awesome Free 7.3.1 by @fontawesome - https://fontawesome.com License - https://fontawesome.com/license/free Copyright 2026 Fonticons, Inc.-->
  <path
     id="path2"
     style="stroke-width:0.900633"
     d="m 182.65137,67.738283 c -3.75152,0 -7.50132,1.774226 -10.38086,5.324218 -22.95521,28.299939 -22.95521,74.100439 0,102.400399 l 114.20703,140.79882 -32.03906,39.5 c -10.22033,-4.89998 -21.25229,-7.5 -32.85157,-7.5 -50.20946,0 -90.84765,50.10014 -90.84765,112 0,61.89988 40.63819,112 90.84765,112 50.20949,0 90.84766,-50.10012 90.84766,-112 0,-14.29996 -2.19053,-27.90002 -6.08398,-40.5 l 32.04101,-39.5 32.03907,39.5 c -3.97458,12.59998 -6.08204,26.20004 -6.08204,40.5 0,61.89988 40.63818,112 90.84766,112 50.20949,0 90.84766,-50.10012 90.84766,-112 0,-61.89986 -40.63817,-112 -90.84766,-112 -11.5993,0 -22.63122,2.70002 -32.85156,7.5 L 193.03418,73.062501 c -2.87954,-3.549992 -6.6313,-5.324218 -10.38281,-5.324218 z m 38.93554,344.523437 c 21.49517,0 38.93555,21.50006 38.93555,48 0,26.49996 -17.44038,48 -38.93555,48 -21.49516,0 -38.93359,-21.50004 -38.93359,-48 0,-26.49994 17.43843,-48 38.93359,-48 z m 233.60938,0 c 21.49519,0 38.93359,21.50003 38.93359,48 0,26.49998 -17.4384,48 -38.93359,48 -21.49522,0 -38.93555,-21.50002 -38.93555,-48 0,-26.49997 17.44033,-48 38.93555,-48 z M 55.010739,139.60157 c -1.195508,0 -2.315018,0.28319 -3.328125,0.75586 l 23.611328,24.68554 c 4.37199,4.57084 4.343097,11.9029 -0.06445,16.43946 l -26.298828,27.0664 c 1.442503,1.76664 3.611463,2.91407 6.080078,2.91407 H 146.53809 L 84.493161,139.60157 Z m 251.583991,0 62.04492,71.86133 h 222.42969 l -26.89063,-28.11329 c -4.37198,-4.57082 -4.34309,-11.90289 0.0645,-16.43945 l 26.5332,-27.30859 z M 494.12988,67.738283 c -3.75152,0 -7.50326,1.774222 -10.38281,5.324218 l -20.88086,25.744136 h 55.10547 c -2.85623,-9.38262 -7.33132,-18.18975 -13.45898,-25.744136 -2.87955,-3.549996 -6.63129,-5.324218 -10.38282,-5.324218 z m -101.96289,183.021487 25.63477,31.60352 25.63476,-31.60352 z" />
</svg>
