<?xml version="1.0" encoding="UTF-8" standalone="no"?>
<!-- Created with Inkscape (http://www.inkscape.org/) -->

<svg
   width="16mm"
   height="15.999994mm"
   viewBox="0 0 16 15.999994"
   version="1.1"
   id="svg1886"
   inkscape:version="1.2.1 (9c6d41e410, 2022-07-14)"
   sodipodi:docname="logo-spo-branco.svg"
   inkscape:export-filename="logo-spo-branco.png"
   inkscape:export-xdpi="25.399992"
   inkscape:export-ydpi="25.399992"
   xmlns:inkscape="http://www.inkscape.org/namespaces/inkscape"
   xmlns:sodipodi="http://sodipodi.sourceforge.net/DTD/sodipodi-0.dtd"
   xmlns="http://www.w3.org/2000/svg"
   xmlns:svg="http://www.w3.org/2000/svg">
  <sodipodi:namedview
     id="namedview1888"
     pagecolor="#ffffff"
     bordercolor="#000000"
     borderopacity="0.25"
     inkscape:showpageshadow="2"
     inkscape:pageopacity="0.0"
     inkscape:pagecheckerboard="true"
     inkscape:deskcolor="#d1d1d1"
     inkscape:document-units="mm"
     showgrid="false"
     inkscape:zoom="0.76167929"
     inkscape:cx="160.82884"
     inkscape:cy="225.81683"
     inkscape:window-width="1920"
     inkscape:window-height="1009"
     inkscape:window-x="1912"
     inkscape:window-y="-8"
     inkscape:window-maximized="1"
     inkscape:current-layer="g282">
    <inkscape:page
       x="0"
       y="0"
       width="16"
       height="15.999994"
       id="page2"
       margin="0"
       bleed="0" />
  </sodipodi:namedview>
  <defs
     id="defs1883" />
  <g
     inkscape:label="Camada 1"
     inkscape:groupmode="layer"
     id="layer1"
     transform="translate(-33.742531,-89.032495)">
    <g
       id="g282"
       style="fill:#ffffff"
       transform="matrix(0.26458333,0,0,0.26458333,11.081747,-25.267979)">
      <path
         id="path270"
         style="fill:#ffffff;stroke-width:0px"
         class="cls-1"
         d="m 134.82398,432.82267 c -0.26818,-0.002 -0.53713,0.0945 -0.74909,0.29063 -0.42391,0.39219 -0.46699,1.0439 -0.10363,1.49088 6.79986,8.3369 8.93364,19.422 5.70384,29.6564 -1.37266,4.36311 -3.61048,8.29091 -6.65571,11.67354 -0.77893,0.86691 -1.60602,1.68033 -2.46864,2.45063 v -42.31561 l -9.58846,9.4071 v 38.80273 c -0.0542,0.0213 -0.10677,0.0461 -0.16109,0.067 -0.94902,0.36529 -1.91343,0.67897 -2.88712,0.9513 V 447.4081 l -9.58846,10.61242 v 28.41392 c -0.87456,-0.0302 -1.74613,-0.0993 -2.61509,-0.20164 v -26.2804 -0.003 L 95.6867,470.56464 v 12.78592 c -3.008809,-1.43167 -5.757155,-3.31686 -8.196149,-5.64584 -0.41526,-0.39795 -1.06978,-0.40402 -1.493691,-0.0118 -0.423911,0.39219 -0.466987,1.0439 -0.103635,1.49088 3.382632,4.14394 7.754421,7.46631 12.639484,9.60029 1.098705,0.48447 2.249211,0.9168 3.417131,1.28304 0.83916,0.2653 1.68712,0.49906 2.51764,0.68939 2.555,0.59693 5.14159,0.89385 7.71966,0.89385 l -0.006,0.003 c 4.23622,0 8.45196,-0.80135 12.46037,-2.39317 3.6364,-1.43899 6.96759,-3.47512 9.90612,-6.04742 4.65725,-4.08627 8.10617,-9.37811 9.97484,-15.30132 3.92477,-12.44335 0.49288,-25.77462 -8.95426,-34.78632 -0.20907,-0.19898 -0.47641,-0.3003 -0.7446,-0.30246 z" />
      <g
         id="g280"
         style="fill:#ffffff">
        <path
           class="cls-1"
           d="m 286.22,552.54 c -6.5,20.61 -18.33,38.07 -33.47,51.35 -9.85,8.63 -21.11,15.49 -33.25,20.3 -20.94,8.31 -44.46,10.47 -67.73,5.03 -2.83,-0.65 -5.64,-1.42 -8.45,-2.31 -3.94,-1.24 -7.77,-2.67 -11.47,-4.31 -16.94,-7.4 -31.3,-18.59 -42.42,-32.22 11.74,11.21 26.05,20.07 42.42,25.52 0.62,0.21 1.24,0.42 1.87,0.62 10.93,3.45 21.99,5.15 32.88,5.29 3.04,0.05 6.06,-0.05 9.07,-0.24 11.48,-0.79 22.68,-3.31 33.25,-7.37 3.6,-1.39 7.13,-2.96 10.58,-4.71 12.47,-6.32 23.77,-14.92 33.25,-25.45 10.55,-11.73 18.83,-25.84 23.88,-41.87 12,-38.02 2.99,-77.63 -20.46,-106.37 30.45,29.04 43.57,73.91 30.06,116.75 z"
           id="path276"
           style="display:none;fill:#ffffff;stroke-width:0px" />
      </g>
    </g>
  </g>
</svg>
