<?xml version="1.0" encoding="UTF-8" standalone="no"?>
<!-- Created with Inkscape (http://www.inkscape.org/) -->

<svg
   width="69.766991mm"
   height="71.953453mm"
   viewBox="0 0 69.766991 71.953452"
   version="1.1"
   id="svg5"
   xml:space="preserve"
   inkscape:version="1.4.2 (f4327f4, 2025-05-13)"
   sodipodi:docname="logoAmareloEstadoPresente.svg"
   xmlns:inkscape="http://www.inkscape.org/namespaces/inkscape"
   xmlns:sodipodi="http://sodipodi.sourceforge.net/DTD/sodipodi-0.dtd"
   xmlns="http://www.w3.org/2000/svg"
   xmlns:svg="http://www.w3.org/2000/svg"><sodipodi:namedview
     id="namedview7"
     pagecolor="#000000"
     bordercolor="#000000"
     borderopacity="0.25"
     inkscape:showpageshadow="2"
     inkscape:pageopacity="0"
     inkscape:pagecheckerboard="0"
     inkscape:deskcolor="#d1d1d1"
     inkscape:document-units="mm"
     showgrid="false"
     inkscape:zoom="1.5233586"
     inkscape:cx="146.38707"
     inkscape:cy="233.36593"
     inkscape:window-width="1920"
     inkscape:window-height="1057"
     inkscape:window-x="-8"
     inkscape:window-y="-8"
     inkscape:window-maximized="1"
     inkscape:current-layer="g30702"
     showguides="true"><sodipodi:guide
       position="70.003575,55.987723"
       orientation="1,0"
       id="guide5784"
       inkscape:locked="false" /></sodipodi:namedview><defs
     id="defs2" /><g
     inkscape:label="Camada 1"
     inkscape:groupmode="layer"
     id="layer1"
     transform="translate(2391.7076,-447.13359)"><g
       id="g16476-7"
       transform="translate(-90.817135,311.37703)"><g
         id="g19922"
         transform="translate(11.790075,-131.16459)"><g
           id="g30702"
           inkscape:export-filename="logoEstadoPresente.png"
           inkscape:export-xdpi="96"
           inkscape:export-ydpi="96"
           transform="translate(-2425.808,265.27669)"><path
             id="path6329-4-0"
             style="fill:#ffffff;fill-opacity:1;stroke:none;stroke-width:1.29646;stroke-linecap:round;stroke-dasharray:none;stroke-opacity:1;paint-order:fill markers stroke"
             d="M 147.42614 1.6749491 C 147.25933 1.6817891 147.09272 1.6882609 146.92591 1.6951029 C 140.13419 2.0560434 133.32676 4.046884 127.76584 8.0451029 C 127.75324 8.6084986 127.39875 8.0701424 126.98295 8.6207784 C 123.38228 11.186183 120.41817 14.605838 118.13336 18.379873 C 115.45172 22.927015 113.61567 28.055799 113.26079 33.342267 C 113.35429 34.338348 113.11375 35.439709 113.1471 36.479026 C 113.085 40.505176 113.40642 44.57257 114.43539 48.474676 C 116.53795 55.443881 120.70097 61.872415 126.59227 66.218813 C 133.84463 71.596571 143.07837 73.971682 152.03775 73.536196 C 160.24058 73.144084 167.97135 69.087736 173.63953 63.257753 C 177.59621 59.170371 180.89341 54.260023 182.39403 48.72479 C 182.64399 47.963201 182.60964 47.160632 182.6643 46.370929 C 181.33745 47.645171 180.60006 49.358778 179.47742 50.796499 C 174.8672 57.276515 168.36547 62.556625 160.78295 64.996149 C 157.47918 66.049945 153.96798 66.720232 150.49624 66.367124 C 142.98581 64.97442 135.48594 61.994534 130.06183 56.453001 C 126.74038 53.082964 124.35933 48.707611 122.88862 44.178815 C 121.16926 37.950708 120.54889 31.331979 121.54038 24.902989 C 121.68697 24.196535 121.59855 23.349077 122.28762 22.918614 C 125.05915 20.232802 128.22241 17.947034 131.56096 16.172772 C 134.26863 14.726963 137.09697 13.60503 140.07827 12.781248 C 143.56167 11.900797 147.37819 11.150583 151.08948 11.679506 C 154.98809 12.056045 158.77944 13.265315 162.20405 15.147512 C 163.0415 14.394494 164.01002 13.882625 165.03902 13.627191 L 165.03954 13.626674 C 165.61973 13.482654 166.21771 13.418005 166.82031 13.433404 C 167.4229 13.448803 168.03012 13.544545 168.62743 13.720725 L 173.27314 15.091184 C 169.40387 9.4286199 163.53097 5.1684131 156.94029 3.2484965 C 153.85505 2.3342416 150.64893 1.7091759 147.42614 1.6749491 z M 143.72818 16.573781 C 141.40009 16.602348 139.08586 17.022684 136.95546 18.005218 C 133.56271 19.550812 130.61156 22.070956 128.52135 25.156203 C 125.48947 29.721927 124.81143 35.527419 125.75305 40.842067 C 126.96981 46.636211 130.18405 52.026788 134.85533 55.693357 C 136.04406 56.642063 137.30075 57.511855 138.6427 58.23067 C 138.22925 58.374998 139.58883 58.701981 139.88552 58.919517 C 148.69204 62.951054 159.52872 62.018628 167.57427 56.654539 C 171.71448 53.890347 174.90161 49.831837 177.01658 45.355487 C 177.44131 44.434725 177.80137 43.488126 178.10231 42.523102 C 177.48673 42.747576 176.83853 42.886771 176.17788 42.929795 C 173.72976 43.088917 171.23041 41.972268 169.92193 39.566176 L 169.68473 39.131578 C 169.20816 40.033162 168.69696 40.912824 168.14994 41.766042 C 169.12268 42.182881 170.15721 42.910168 170.93375 44.337978 C 172.50844 47.233174 170.89562 50.93801 168.2073 52.136468 L 168.20524 52.138536 C 167.589 52.413185 166.72832 52.673796 165.68343 52.636696 C 164.58793 52.604019 161.83766 52.375383 158.84043 51.052814 C 158.14404 51.48791 157.4312 51.89429 156.70361 52.26876 C 154.2622 53.584456 151.70066 54.674582 149.0741 55.562616 C 143.92834 52.864566 139.2259 48.812658 136.91722 43.366978 C 135.68275 40.577972 135.09747 37.631387 134.97109 34.569582 C 134.75838 30.647439 136.5788 26.921926 139.05456 23.985732 C 141.47845 21.008309 144.73288 18.788834 148.28242 17.366498 C 149.3681 17.033151 148.61568 16.973898 147.89743 16.909161 C 146.52696 16.680617 145.12503 16.556641 143.72818 16.573781 z M 152.63306 22.890708 C 152.41883 22.8881 152.2044 22.892194 151.9902 22.902594 C 147.45834 23.099445 143.32422 26.732042 142.66157 31.24162 C 141.98868 35.12526 143.87031 39.300748 147.26801 41.31594 C 148.22838 41.925535 149.29119 42.347861 150.39444 42.587181 C 147.52877 35.748123 150.84338 27.767574 157.55214 24.196055 C 156.24859 23.45445 154.78394 22.998538 153.2754 22.918097 C 153.0616 22.902342 152.84729 22.893317 152.63306 22.890708 z M 163.95898 49.705092 C 164.26019 49.917795 164.50306 50.003756 164.6623 50.043056 C 164.46145 49.988996 164.18238 49.786792 163.95898 49.705092 z " /><path
             d="m 165.29501,18.624343 c -0.57046,0.579389 -0.70334,1.393324 -0.33301,2.07424 l 2.27882,4.19021 -6.65338,2.963223 c -5.77423,2.571649 -8.21074,8.783871 -5.44199,13.874988 3.22737,5.934416 9.51025,6.428458 10.91172,6.467955 0.18843,0.0071 0.36915,-0.04061 0.53527,-0.114802 0.6476,-0.288259 0.91681,-0.987373 0.60914,-1.553051 -0.21361,-0.392756 -0.66562,-0.640479 -1.1376,-0.762087 -0.80909,-0.212234 -2.07084,-0.795417 -2.93391,-2.382474 -1.50972,-2.776029 -0.18032,-6.165937 2.96831,-7.568175 l 5.70291,-2.539879 2.27885,4.190214 c 0.36714,0.675787 1.1641,1.082123 2.01941,1.02653 0.85531,-0.05547 1.58936,-0.564715 1.87668,-1.284781 l 4.94721,-12.613604 c 0.38662,-0.985443 -0.19208,-2.04867 -1.29037,-2.372711 l -14.06244,-4.147273 c -0.80862,-0.238509 -1.69939,-0.01747 -2.26985,0.562008 z"
             id="path2053-1-3-8-3-5-6-3"
             style="fill:#ffffff;fill-opacity:1;fill-rule:evenodd;stroke:none;stroke-width:8.98243;stroke-linecap:round;stroke-linejoin:round;stroke-dasharray:none;stroke-opacity:1;paint-order:markers stroke fill" /></g></g></g></g></svg>
