<?xml version="1.0" encoding="UTF-8" standalone="no"?>
<svg
   version="1.1"
   width="20"
   height="20"
   style="clip-rule:evenodd;fill-rule:evenodd;image-rendering:optimizeQuality;shape-rendering:geometricPrecision;text-rendering:geometricPrecision"
   id="svg4"
   sodipodi:docname="menu-icone-indicadores.svg"
   inkscape:export-filename="menu-icone-indicadores.svg"
   inkscape:export-xdpi="20"
   inkscape:export-ydpi="20"
   xmlns:inkscape="http://www.inkscape.org/namespaces/inkscape"
   xmlns:sodipodi="http://sodipodi.sourceforge.net/DTD/sodipodi-0.dtd"
   xmlns="http://www.w3.org/2000/svg"
   xmlns:svg="http://www.w3.org/2000/svg">
  <sodipodi:namedview
     id="namedview1"
     pagecolor="#ffffff"
     bordercolor="#000000"
     borderopacity="0.25"
     inkscape:showpageshadow="2"
     inkscape:pageopacity="0.0"
     inkscape:pagecheckerboard="0"
     inkscape:deskcolor="#d1d1d1"
     inkscape:export-bgcolor="#ffffff00" />
  <defs
     id="defs4" />
	<g id="icon" fill="#fff"
		   style="opacity:1;">
	  <g
		 id="g1"
		 transform="matrix(0.23335743,0,0,0.23335743,-1.5180441,-0.96812578)">
		<path
		   d="m 51.5,7.5 c 4,0 8,0 12,0 0.1666,14.004 -1e-4,28.004 -0.5,42 -3.6667,3.6667 -7.3333,7.3333 -11,11 -0.4999,-17.6635 -0.6666,-35.3302 -0.5,-53 z"
		   id="path1" />
	  </g>
	  <g
		 id="g2"
		 transform="matrix(0.23335743,0,0,0.23335743,-1.5180441,-0.96812578)">
		<path
		   d="m 31.5,23.5 c 4,0 8,0 12,0 0.1665,10.3387 -2e-4,20.672 -0.5,31 -1.6837,-1.8513 -3.5171,-3.518 -5.5,-5 -1.9829,1.482 -3.8163,3.1487 -5.5,5 -0.4998,-10.328 -0.6665,-20.6613 -0.5,-31 z"
		   id="path2" />
	  </g>
	  <g
		 id="g3"
		 transform="matrix(0.23335743,0,0,0.23335743,-1.5180441,-0.96812578)">
		<path
		   d="m 11.5,39.5 c 4,0 8,0 12,0 0.1664,8.0069 -3e-4,16.0069 -0.5,24 -3.6667,3.6667 -7.3333,7.3333 -11,11 -0.4999,-11.6619 -0.6665,-23.3286 -0.5,-35 z"
		   id="path3" />
	  </g>
	  <g
		 id="g4"
		 transform="matrix(0.23335743,0,0,0.23335743,-1.5180441,-0.96812578)">
		<path
		   d="m 67.5,39.5 c 6.6667,0 13.3333,0 20,0 0,7 0,14 0,21 -2.6667,0 -5.3333,0 -8,0 0.1621,-2.0273 -0.0045,-4.0273 -0.5,-6 -9,9 -18,18 -27,27 -4.8529,-3.7632 -9.5196,-7.7632 -14,-12 -4.8333,4.8333 -9.6667,9.6667 -14.5,14.5 -4.0411,0.8265 -8.0411,0.6599 -12,-0.5 8.3333,-9 17,-17.6667 26,-26 3.6667,3.1667 7.3333,6.3333 11,9.5 1.2589,0.9819 2.5922,1.3152 4,1 6.3333,-6.3333 12.6667,-12.6667 19,-19 -1.2932,-0.49 -2.6266,-0.6567 -4,-0.5 0,-3 0,-6 0,-9 z"
		   id="path4" />
	  </g>
	</g>
</svg>
