<?xml version="1.0" encoding="UTF-8" standalone="no"?>
<svg
   version="1.1"
   width="20"
   height="20"
   style="clip-rule:evenodd;fill-rule:evenodd;image-rendering:optimizeQuality;shape-rendering:geometricPrecision;text-rendering:geometricPrecision"
   id="svg2"
   sodipodi:docname="menu-icone-siscap.svg"
   inkscape:version="1.3.2 (091e20e, 2023-11-25, custom)"
   xmlns:inkscape="http://www.inkscape.org/namespaces/inkscape"
   xmlns:sodipodi="http://sodipodi.sourceforge.net/DTD/sodipodi-0.dtd"
   xmlns="http://www.w3.org/2000/svg"
   xmlns:svg="http://www.w3.org/2000/svg">
  <defs
     id="defs2" />
  <sodipodi:namedview
     id="namedview2"
     pagecolor="#ffffff"
     bordercolor="#000000"
     borderopacity="0.25"
     inkscape:showpageshadow="2"
     inkscape:pageopacity="0.0"
     inkscape:pagecheckerboard="0"
     inkscape:deskcolor="#d1d1d1"
     inkscape:zoom="31.380252"
     inkscape:cx="11.567785"
     inkscape:cy="11.137578"
     inkscape:window-width="1920"
     inkscape:window-height="1017"
     inkscape:window-x="1912"
     inkscape:window-y="-8"
     inkscape:window-maximized="1"
     inkscape:current-layer="svg2" />
  <g
     id="g1"
     fill="#fff"
     style="opacity:1">
    <path
       d="m 91.5,-0.5 c 1.3333,0 2.6667,0 4,0 2.3691,7.07867 5.036,14.0787 8,21 -5.2663,2.9704 -10.5996,5.9704 -16,9 28.114,11.4496 48.781,30.7829 62,58 0,1.3333 0,2.6667 0,4 -7.545,3.0704 -15.212,5.7371 -23,8 -0.592,-3.1907 -1.759,-6.1907 -3.5,-9 -3.367,9.067 -8.033,17.4 -14,25 -11.8248,14.02 -25.9915,24.686 -42.5,32 -1,0 -2,0 -3,0 -2.7981,-7.053 -5.7981,-14.053 -9,-21 4.4413,-2.724 9.108,-5.224 14,-7.5 -32.0261,-9.993 -55.0261,-30.1593 -69,-60.5 0,-1.3333 0,-2.6667 0,-4 7.12051,-2.2638 14.1205,-4.9304 21,-8 3.9917,5.9766 7.4917,12.3099 10.5,19 10.995,-30.4915 31.1617,-52.4915 60.5,-66 z m 24,79 c -5.762,6.9364 -11.762,13.7697 -18,20.5 -5.7431,4.621 -11.5764,9.121 -17.5,13.5 -16.4712,-8.972 -30.3045,-20.972 -41.5,-36 9.5127,-15.6827 21.6793,-29.0161 36.5,-40 10.8934,7.4756 20.8934,16.1422 30,26 4.142,4.9631 7.642,10.2964 10.5,16 z"
       id="path1"
       transform="matrix(0.12959232,0,0,0.12986538,0.37878002,0.49481729)" />
    <path
       d="m 74.5,61.5 c 13.9377,0.5454 19.1044,7.5454 15.5,21 -7.5291,8.9257 -15.5291,9.259 -24,1 -4.52,-10.284 -1.6866,-17.6173 8.5,-22 z"
       id="path2"
       transform="matrix(0.13344113,0,0,0.13344113,0.04393209,0.1117225)" />
  </g>
</svg>
