<?xml version="1.0" encoding="UTF-8" standalone="no"?>
<!-- Created with Inkscape (http://www.inkscape.org/) -->

<svg
   width="20mm"
   height="20mm"
   viewBox="0 0 20 20"
   version="1.1"
   id="svg1"
   xml:space="preserve"
   inkscape:version="1.3.2 (091e20e, 2023-11-25, custom)"
   sodipodi:docname="menu-icone-openpmo.svg"
   xmlns:inkscape="http://www.inkscape.org/namespaces/inkscape"
   xmlns:sodipodi="http://sodipodi.sourceforge.net/DTD/sodipodi-0.dtd"
   xmlns="http://www.w3.org/2000/svg"
   xmlns:svg="http://www.w3.org/2000/svg"><sodipodi:namedview
     id="namedview1"
     pagecolor="#13ff07"
     bordercolor="#000000"
     borderopacity="0.25"
     inkscape:showpageshadow="2"
     inkscape:pageopacity="0.0"
     inkscape:pagecheckerboard="0"
     inkscape:deskcolor="#d1d1d1"
     inkscape:document-units="mm"
     inkscape:zoom="8.2747365"
     inkscape:cx="37.342579"
     inkscape:cy="41.391046"
     inkscape:window-width="1920"
     inkscape:window-height="1017"
     inkscape:window-x="1912"
     inkscape:window-y="-8"
     inkscape:window-maximized="1"
     inkscape:current-layer="svg1" /><defs
     id="defs1" /><g
     id="g6"
	 fill="#ffffff"
     style="opacity:1"><path
       d="M 8.2495071,2.5579867 7.2263126,4.5404264 C 5.5203271,5.1284236 4.5366714,6.1499853 4.0927787,7.1623629 3.1444091,9.1039102 2.9615382,10.349549 2.9416848,11.446991 L 1.1191192,11.606865 C 1.3701729,9.5097868 0.59777836,8.7681545 3.1015589,5.1159734 4.7701708,3.2211528 6.4958633,2.5821051 8.2495071,2.5579867 Z"
       id="path1"
       sodipodi:nodetypes="ccccccc" /><path
       d="m 1.6626914,13.173632 c 0.5310597,1.259563 0.7973102,2.462382 2.4620622,3.964879 L 5.2758478,15.667669 C 4.5452889,14.987406 3.7586439,14.307664 3.1974835,12.949808 Z"
       id="path2"
       sodipodi:nodetypes="ccccc" /><path
       d="m 6.4269418,16.914687 -0.8313457,1.05517 c 1.4050121,1.02194 2.968119,1.253406 4.5404269,1.438867 L 9.9761483,17.714058 C 8.8464869,17.768045 7.640498,17.364068 6.4269418,16.914687 Z"
       id="path3"
       sodipodi:nodetypes="ccccc" /><path
       d="m 18.513429,9.0808528 -1.822566,2.1423142 c -0.775902,4.458144 -2.989048,5.143524 -5.083998,6.139168 l 0.255798,1.694667 c 2.22744,-0.664506 5.207865,-1.670325 6.746691,-6.682741 0.04279,-1.185033 0.327696,-2.6525259 -0.09593,-3.2934082 z"
       id="path4"
       sodipodi:nodetypes="cccccc" /><path
       d="M 6.5868158,7.8977841 7.7698848,6.1071934 13.781153,5.1799233 14.868298,11.095268 13.365481,13.205607 12.50216,7.2902621 Z"
       id="path5" /><path
       d="M 9.2727019,4.1567285 10.551695,2.2702132 16.499015,1.3749179 17.714058,7.2582875 16.179266,9.0808528 15.124097,3.4532821 Z"
       id="path6" /></g></svg>
