<?xml version="1.0" encoding="UTF-8" standalone="no"?>
<svg
   version="1.1"
   width="20"
   height="20"
   style="clip-rule:evenodd;fill-rule:evenodd;image-rendering:optimizeQuality;shape-rendering:geometricPrecision;text-rendering:geometricPrecision"
   id="svg2"
   sodipodi:docname="menu-icone-gestao-fiscal.svg"
   inkscape:version="1.3.2 (091e20e, 2023-11-25, custom)"
   xmlns:inkscape="http://www.inkscape.org/namespaces/inkscape"
   xmlns:sodipodi="http://sodipodi.sourceforge.net/DTD/sodipodi-0.dtd"
   xmlns="http://www.w3.org/2000/svg"
   xmlns:svg="http://www.w3.org/2000/svg">
  <defs
     id="defs2" />
  <sodipodi:namedview
     id="namedview2"
     pagecolor="#ffffff"
     bordercolor="#000000"
     borderopacity="0.25"
     inkscape:showpageshadow="2"
     inkscape:pageopacity="0.0"
     inkscape:pagecheckerboard="0"
     inkscape:deskcolor="#d1d1d1"
     inkscape:zoom="8.5520833"
     inkscape:cx="47.941535"
     inkscape:cy="48"
     inkscape:window-width="1920"
     inkscape:window-height="1017"
     inkscape:window-x="1912"
     inkscape:window-y="-8"
     inkscape:window-maximized="1"
     inkscape:current-layer="svg2" />
  <g
     id="g1"
     transform="matrix(0.22387359,0,0,0.22387359,-0.72716595,-0.57431638)"
	 fill="#fff"
     style="opacity:1">
    <path
       d="m 11.5,15.5 c 24.3783,-0.3234 48.7116,0.0099 73,1 0.8333,1 1.6667,2 2.5,3 0.6667,18.6667 0.6667,37.3333 0,56 -0.8333,1.5 -2,2.6667 -3.5,3.5 -24.376,0.8232 -48.7094,0.6566 -73,-0.5 -0.83333,-1 -1.66667,-2 -2.5,-3 -0.66667,-18.6667 -0.66667,-37.3333 0,-56 1.03191,-1.5267 2.1986,-2.86 3.5,-4 z m 4,8 c 21.3333,0 42.6667,0 64,0 0,16 0,32 0,48 -21.3333,0 -42.6667,0 -64,0 0,-16 0,-32 0,-48 z"
       id="path1" />
    <path
       d="m 43.5,27.5 c 2.6667,0 5.3333,0 8,0 0,1.3333 0,2.6667 0,4 2.6667,0 5.3333,0 8,0 0,2.6667 0,5.3333 0,8 -5.3333,0 -10.6667,0 -16,0 0,1.3333 0,2.6667 0,4 5.2616,-0.3047 10.4283,0.0286 15.5,1 0.6667,6 0.6667,12 0,18 -2.3806,0.935 -4.8806,1.2683 -7.5,1 0,1.3333 0,2.6667 0,4 -2.6667,0 -5.3333,0 -8,0 0,-1.3333 0,-2.6667 0,-4 -2.6667,0 -5.3333,0 -8,0 0,-2.6667 0,-5.3333 0,-8 5.3333,0 10.6667,0 16,0 0,-1.3333 0,-2.6667 0,-4 -5.2616,0.3047 -10.4283,-0.0286 -15.5,-1 -0.6667,-6 -0.6667,-12 0,-18 2.3806,-0.935 4.8806,-1.2683 7.5,-1 0,-1.3333 0,-2.6667 0,-4 z"
       id="path2" />
  </g>
</svg>
