<?xml version="1.0" encoding="UTF-8" standalone="no"?>
<!-- Created with Inkscape (http://www.inkscape.org/) -->

<svg
   width="16.698mm"
   height="16.698mm"
   viewBox="0 0 16.698 16.698"
   version="1.1"
   id="svg5791"
   xml:space="preserve"
   inkscape:version="1.4 (86a8ad7, 2024-10-11)"
   sodipodi:docname="logomarkwhite.svg"
   xmlns:inkscape="http://www.inkscape.org/namespaces/inkscape"
   xmlns:sodipodi="http://sodipodi.sourceforge.net/DTD/sodipodi-0.dtd"
   xmlns="http://www.w3.org/2000/svg"
   xmlns:svg="http://www.w3.org/2000/svg"><sodipodi:namedview
     id="namedview5793"
     pagecolor="#5e5e5e"
     bordercolor="#000000"
     borderopacity="0.25"
     inkscape:showpageshadow="2"
     inkscape:pageopacity="0"
     inkscape:pagecheckerboard="true"
     inkscape:deskcolor="#d1d1d1"
     inkscape:document-units="mm"
     showgrid="false"
     inkscape:zoom="6.7565736"
     inkscape:cx="27.30674"
     inkscape:cy="21.090572"
     inkscape:window-width="1920"
     inkscape:window-height="1009"
     inkscape:window-x="-8"
     inkscape:window-y="-8"
     inkscape:window-maximized="1"
     inkscape:current-layer="layer1" /><defs
     id="defs5788" /><g
     inkscape:label="Camada 1"
     inkscape:groupmode="layer"
     id="layer1"
     fill="#FFFF"
     transform="translate(-65.514238,-49.508514)"><g
       id="g6282"
       transform="translate(18.663477,-0.77530296)"
       ><g
         id="g6289"
         ><path
           style="stroke:none;stroke-width:0.27057;fill-opacity:1"
           d="m 54.635553,50.384379 c -1.773265,0.463148 -2.068675,2.989836 -0.442756,3.893821 0.807895,0.449177 1.650926,0.02487 2.216162,0.196507 0.612375,0.185949 0.802219,0.355745 1.078239,0.594408 0.163289,0.14119 0.510197,0.339565 0.739651,0.750169 0.278191,0.497816 0.256322,0.868195 0.419942,1.499861 0.254242,0.981523 1.447508,2.081412 2.862518,1.60996 1.635256,-0.544833 1.984135,-3.10201 0.436005,-4.010166 -0.878732,-0.515451 -1.654165,-0.128439 -2.557626,-0.254173 -0.293334,-0.04082 -0.874842,-0.39258 -1.129913,-0.609999 -0.236014,-0.201177 -0.577725,-0.477695 -0.798953,-0.982878 -0.210006,-0.479558 0.07989,-0.864317 -0.282977,-1.627252 -0.406257,-0.854184 -1.256431,-1.395578 -2.540292,-1.060258"
           id="path5807"
           sodipodi:nodetypes="csssssscssssc" /><ellipse
           style="stroke:none;stroke-width:2.99603;stroke-linecap:round;stroke-linejoin:round"
           id="path6013"
           cx="49.70332"
           cy="56.708858"
           rx="2.2428799"
           ry="2.2151899" /><rect
           style="stroke:none;stroke-width:2.09717;stroke-linecap:round;stroke-linejoin:round"
           id="rect6179"
           width="4.4303799"
           height="6.9778476"
           x="47.598892"
           y="60.003956"
           ry="2.0893536" /><rect
           style="stroke:none;stroke-width:2.10184;stroke-linecap:round;stroke-linejoin:round"
           id="rect6179-0"
           width="4.4857597"
           height="6.9224677"
           x="58.453323"
           y="60.031647"
           ry="2.0727713" /><rect
           style="stroke:none;stroke-width:2.66528;stroke-linecap:round;stroke-linejoin:round"
           id="rect6179-0-3"
           width="4.4857597"
           height="11.131329"
           x="52.943039"
           y="55.795097"
           ry="2.2428799" /></g></g></g></svg>
