<?xml version="1.0" encoding="UTF-8" standalone="no"?>
<svg
   width="100.070213"
   height="100.680573"
   viewBox="0 0 40.070213 52.680573"
   version="1.1"
   id="svg8771"
   sodipodi:docname="menu-icone-sas.svg"
   xml:space="preserve"
   inkscape:version="1.3.2 (091e20e, 2023-11-25, custom)"
   xmlns:inkscape="http://www.inkscape.org/namespaces/inkscape"
   xmlns:sodipodi="http://sodipodi.sourceforge.net/DTD/sodipodi-0.dtd"
   xmlns="http://www.w3.org/2000/svg"
   xmlns:svg="http://www.w3.org/2000/svg"
   xmlns:rdf="http://www.w3.org/1999/02/22-rdf-syntax-ns#"
   xmlns:cc="http://creativecommons.org/ns#"
   xmlns:dc="http://purl.org/dc/elements/1.1/"><sodipodi:namedview
     id="namedview8773"
     pagecolor="#ffffff"
     bordercolor="#000000"
     borderopacity="0.25"
     inkscape:showpageshadow="2"
     inkscape:pageopacity="1"
     inkscape:pagecheckerboard="0"
     inkscape:deskcolor="#d1d1d1"
     showgrid="false"
     inkscape:zoom="4.9023437"
     inkscape:cx="44.876494"
     inkscape:cy="34.167331"
     inkscape:window-width="1920"
     inkscape:window-height="1017"
     inkscape:window-x="1912"
     inkscape:window-y="-8"
     inkscape:window-maximized="1"
     inkscape:current-layer="svg8771" /><!-- Generator: Sketch 50 (54983) - http://www.bohemiancoding.com/sketch --><title
     id="title8755">sas-logo-midnight</title><desc
     id="desc8757">Created with Sketch.</desc><defs
     id="defs8759" /><g
     id="Option-A"
     transform="translate(-576.16797,-240.99951)"
     fill="#fff"
     style="opacity:1"><g
       id="sas-logo-midnight"
       transform="translate(576,240)"><g
         id="g9205"><path
           d="m 22.469325,16.459162 8.070144,9.745408 C 41.401037,39.384474 31.469261,50.81129 22.579917,53.032346 12.330701,55.595418 3.0594048,50.264474 0.2956288,42.110362 c 3.564544,5.810176 13.9141122,7.069696 19.5512322,3.530752 6.396928,-4.018176 8.507392,-11.072512 3.789824,-16.79872 0,0 -3.782656,-4.55168 -6.597632,-7.934976 l 0.02662,0.03277 c -0.254976,-0.309248 -0.401408,-0.485376 -0.402432,-0.487424 -1.22368,-1.482752 -0.787456,-3.508224 0.698368,-4.731904 1.475584,-1.216512 3.475456,-1.22368 4.704256,0.237568 l 0.884736,1.068032"
           id="Fill-7" /><path
           d="m 11.399168,36.343808 1.833984,2.215936 c 1.2288,1.461248 3.228672,1.451008 4.706304,0.234496 1.483776,-1.22368 1.922048,-3.247104 0.698368,-4.732928 -0.0051,-0.0031 -0.723968,-0.8704 -1.768448,-2.123776 l 1.04448,1.217536 C 15.173632,29.858816 11.828224,25.837568 11.828224,25.837568 7.110656,20.113408 9.222144,13.056 15.619072,9.037824 21.254144,5.497856 31.604736,6.757376 35.16928,12.570624 32.40448,4.41344 23.134208,-0.914432 12.886016,1.646592 3.994624,3.866624 -5.936128,15.291392 4.92544,28.474368 l 7.697408,9.294848"
           id="Fill-9"  /><path
           d="m 37.724262,42.05271 v -0.736256 h 0.488448 c 0.249856,0 0.515072,0.05222 0.515072,0.349184 0,0.361472 -0.267264,0.387072 -0.574464,0.387072 z m 0,0.299008 h 0.411648 l 0.625664,1.02912 h 0.403456 l -0.674816,-1.04448 c 0.349184,-0.03994 0.616448,-0.22528 0.616448,-0.651264 0,-0.466944 -0.27648,-0.672768 -0.840704,-0.672768 h -0.90112 v 2.368512 h 0.359424 z m 0.4352,1.895424 c 1.119232,0 2.07872,-0.866304 2.07872,-2.055168 0,-1.179648 -0.959488,-2.051072 -2.07872,-2.051072 -1.129472,0 -2.08896,0.871424 -2.08896,2.051072 0,1.188864 0.959488,2.055168 2.08896,2.055168 z m -1.67424,-2.055168 c 0,-0.973824 0.731136,-1.705984 1.67424,-1.705984 0.927744,0 1.664,0.73216 1.664,1.705984 0,0.986112 -0.736256,1.717248 -1.664,1.717248 -0.943104,0 -1.67424,-0.731136 -1.67424,-1.717248 z"
           id="Fill-13" /></g></g></g><metadata
     id="metadata8892"><rdf:RDF><cc:Work
         rdf:about=""><dc:title>sas-logo-midnight</dc:title></cc:Work></rdf:RDF></metadata></svg>
