<?xml version="1.0" encoding="UTF-8" standalone="no"?>
<svg
   width="48.993282"
   height="52.68095"
   viewBox="0 0 48.993282 52.680951"
   version="1.1"
   id="svg8771"
   sodipodi:docname="menu-icone-sas.svg"
   xml:space="preserve"
   inkscape:version="1.4.2 (f4327f4, 2025-05-13)"
   xmlns:inkscape="http://www.inkscape.org/namespaces/inkscape"
   xmlns:sodipodi="http://sodipodi.sourceforge.net/DTD/sodipodi-0.dtd"
   xmlns="http://www.w3.org/2000/svg"
   xmlns:svg="http://www.w3.org/2000/svg"
   xmlns:rdf="http://www.w3.org/1999/02/22-rdf-syntax-ns#"
   xmlns:cc="http://creativecommons.org/ns#"
   xmlns:dc="http://purl.org/dc/elements/1.1/"><sodipodi:namedview
     id="namedview8773"
     pagecolor="#000000"
     bordercolor="#000000"
     borderopacity="0.25"
     inkscape:showpageshadow="2"
     inkscape:pageopacity="1"
     inkscape:pagecheckerboard="0"
     inkscape:deskcolor="#d1d1d1"
     showgrid="false"
     inkscape:zoom="9.8046876"
     inkscape:cx="18.256574"
     inkscape:cy="22.897211"
     inkscape:window-width="1920"
     inkscape:window-height="1057"
     inkscape:window-x="-8"
     inkscape:window-y="-8"
     inkscape:window-maximized="1"
     inkscape:current-layer="g9205" /><!-- Generator: Sketch 50 (54983) - http://www.bohemiancoding.com/sketch --><title
     id="title8755">sas-logo-midnight</title><desc
     id="desc8757">Created with Sketch.</desc><defs
     id="defs8759" /><g
     id="Option-A"
     transform="translate(-576.16797,-240.99951)"
     fill="#ffffff"
     style="fill-rule:evenodd;stroke:none;stroke-width:1"><g
       id="sas-logo-midnight"
       transform="translate(576,240)"><g
         id="g9205"><path
           id="Fill-7"
           d="M 19.806642 14.835447 C 18.968628 14.806648 18.09912 15.111958 17.361329 15.720213 C 15.875509 16.94389 15.440386 18.969886 16.664064 20.452635 C 16.665018 20.454535 16.815336 20.636535 17.039064 20.907713 L 17.066407 20.940916 C 19.877597 24.319704 23.63672 28.84326 23.63672 28.84326 C 28.354278 34.569457 26.244573 41.621967 19.847657 45.640135 C 14.210552 49.179075 3.85946 47.921002 0.29492312 42.110838 C 3.0586936 50.264933 12.330884 55.59578 22.580079 53.032713 C 28.312177 51.600514 34.470668 46.337345 35.214845 39.247557 C 33.51153 38.973177 28.344467 37.563841 26.117189 31.802244 C 24.833285 28.480998 25.321715 24.88047 27.111329 22.065916 L 22.468751 16.458494 L 22.951173 17.026854 L 22.066407 15.958494 C 21.452009 15.227872 20.644656 14.864247 19.806642 14.835447 z M 34.222657 36.923338 C 34.42912 37.117328 34.618932 37.223866 34.765626 37.284666 C 34.601939 37.217119 34.401125 37.021598 34.222657 36.923338 z " /><path
           d="m 11.399168,36.343808 1.833984,2.215936 c 1.2288,1.461248 3.228672,1.451008 4.706304,0.234496 1.483776,-1.22368 1.922048,-3.247104 0.698368,-4.732928 -0.0051,-0.0031 -0.723968,-0.8704 -1.768448,-2.123776 l 1.04448,1.217536 C 15.173632,29.858816 11.828224,25.837568 11.828224,25.837568 7.110656,20.113408 9.222144,13.056 15.619072,9.037824 21.254144,5.497856 31.604736,6.757376 35.16928,12.570624 32.40448,4.41344 23.134208,-0.914432 12.886016,1.646592 3.994624,3.866624 -5.936128,15.291392 4.92544,28.474368 l 7.697408,9.294848"
           id="Fill-9" /><path
           d="m 37.724262,42.05271 v -0.736256 h 0.488448 c 0.249856,0 0.515072,0.05222 0.515072,0.349184 0,0.361472 -0.267264,0.387072 -0.574464,0.387072 z m 0,0.299008 h 0.411648 l 0.625664,1.02912 h 0.403456 l -0.674816,-1.04448 c 0.349184,-0.03994 0.616448,-0.22528 0.616448,-0.651264 0,-0.466944 -0.27648,-0.672768 -0.840704,-0.672768 h -0.90112 v 2.368512 h 0.359424 z m 0.4352,1.895424 c 1.119232,0 2.07872,-0.866304 2.07872,-2.055168 0,-1.179648 -0.959488,-2.051072 -2.07872,-2.051072 -1.129472,0 -2.08896,0.871424 -2.08896,2.051072 0,1.188864 0.959488,2.055168 2.08896,2.055168 z m -1.67424,-2.055168 c 0,-0.973824 0.731136,-1.705984 1.67424,-1.705984 0.927744,0 1.664,0.73216 1.664,1.705984 0,0.986112 -0.736256,1.717248 -1.664,1.717248 -0.943104,0 -1.67424,-0.731136 -1.67424,-1.717248 z"
           id="Fill-13" /><g
           id="path2053-1"><path
             style="color:#000000;fill:#ffffff;stroke-width:6.552;stroke-linecap:round;stroke-linejoin:round;-inkscape-stroke:none;paint-order:stroke markers fill"
             d="m 37.080271,14.412135 c -0.403317,0.386164 -0.53616,0.971697 -0.334825,1.492517 l 1.238985,3.205047 -4.487066,1.734578 c -3.894133,1.505367 -5.830704,5.88274 -4.325338,9.776871 1.754713,4.53915 5.803515,5.304128 6.710663,5.423157 0.121835,0.01737 0.241765,-0.006 0.353939,-0.04933 0.436687,-0.168811 0.651406,-0.661661 0.484143,-1.094344 -0.116152,-0.300473 -0.395289,-0.510315 -0.694621,-0.629454 -0.51288,-0.206973 -1.298265,-0.713848 -1.767531,-1.927761 -0.820826,-2.123344 0.235931,-4.512012 2.359273,-5.332837 l 3.846056,-1.486782 1.238986,3.205048 c 0.199788,0.516814 0.693484,0.86475 1.251677,0.879218 0.558199,0.01446 1.063697,-0.309887 1.29134,-0.816944 l 3.932119,-8.888057 c 0.307207,-0.694381 -0.0076,-1.50766 -0.701575,-1.814857 l -8.888059,-3.932122 c -0.511062,-0.226098 -1.101744,-0.122087 -1.505066,0.264073 z"
             id="path8387" /></g></g></g></g><metadata
     id="metadata8892"><rdf:RDF><cc:Work
         rdf:about=""><dc:title>sas-logo-midnight</dc:title></cc:Work></rdf:RDF></metadata></svg>
