<?xml version="1.0" encoding="UTF-8" standalone="no"?>
<!-- Created with Inkscape (http://www.inkscape.org/) -->

<svg
   width="16.698mm"
   height="16.698mm"
   viewBox="0 0 16.698 16.698"
   version="1.1"
   id="svg5791"
   xml:space="preserve"
   inkscape:version="1.4.2 (f4327f4, 2025-05-13)"
   sodipodi:docname="menu-icone-indicadores.svg"
   xmlns:inkscape="http://www.inkscape.org/namespaces/inkscape"
   xmlns:sodipodi="http://sodipodi.sourceforge.net/DTD/sodipodi-0.dtd"
   xmlns="http://www.w3.org/2000/svg"
   xmlns:svg="http://www.w3.org/2000/svg"><sodipodi:namedview
     id="namedview5793"
     pagecolor="#000000"
     bordercolor="#000000"
     borderopacity="0.25"
     inkscape:showpageshadow="2"
     inkscape:pageopacity="0"
     inkscape:pagecheckerboard="false"
     inkscape:deskcolor="#d1d1d1"
     inkscape:document-units="mm"
     showgrid="false"
     inkscape:zoom="6.7565736"
     inkscape:cx="43.661184"
     inkscape:cy="25.08668"
     inkscape:window-width="1920"
     inkscape:window-height="1057"
     inkscape:window-x="1912"
     inkscape:window-y="-8"
     inkscape:window-maximized="1"
     inkscape:current-layer="layer1"
     showguides="true"><sodipodi:guide
       position="21.708861,19.743886"
       orientation="1,0"
       id="guide2949"
       inkscape:locked="false" /></sodipodi:namedview><defs
     id="defs5788"><linearGradient
       id="linearGradient2908"
       inkscape:swatch="solid"><stop
         style="stop-color:#000000;stop-opacity:1;"
         offset="0"
         id="stop2906" /></linearGradient><linearGradient
       id="linearGradient940"
       inkscape:swatch="solid"><stop
         style="stop-color:#000000;stop-opacity:1;"
         offset="0"
         id="stop938" /></linearGradient></defs><g
     inkscape:label="Camada 1"
     inkscape:groupmode="layer"
     id="layer1"
     transform="translate(-65.514238,-49.508514)"><path
       id="path2962"
       style="fill:#ffffff;stroke-width:2.66528;stroke-linecap:round;stroke-linejoin:round"
       d="M 73.97522 49.509031 C 73.765058 49.513977 73.539499 49.546411 73.298776 49.609283 C 71.525513 50.072431 71.230508 52.599118 72.856426 53.503102 C 73.66432 53.952279 74.507075 53.527836 75.072311 53.699473 C 75.684685 53.885421 75.874778 54.055089 76.150798 54.293752 C 76.212438 54.347049 76.300036 54.408569 76.397811 54.486505 C 76.468535 54.243744 76.591827 54.020294 76.765748 53.84365 A 1.2042004 1.2042004 0 0 1 76.786935 53.835898 C 76.923669 53.700569 77.075187 53.590468 77.23652 53.507236 C 77.112805 53.42717 77.000477 53.346838 76.921294 53.279343 C 76.68528 53.078166 76.343604 52.80164 76.122376 52.296458 C 75.91237 51.8169 76.202056 51.432101 75.839189 50.669167 C 75.509106 49.975143 74.885925 49.487599 73.97522 49.509031 z M 68.366777 53.718593 A 2.2428799 2.2151899 0 0 0 66.12402 55.933445 A 2.2428799 2.2151899 0 0 0 68.366777 58.148813 A 2.2428799 2.2151899 0 0 0 70.609534 55.933445 A 2.2428799 2.2151899 0 0 0 68.366777 53.718593 z M 73.849647 55.019806 C 72.607092 55.019806 71.606373 56.020009 71.606373 57.262563 L 71.606373 63.908152 C 71.606373 65.150707 72.607092 66.150909 73.849647 66.150909 C 75.0922 66.150909 76.092404 65.150707 76.092404 63.908152 L 76.092404 62.794008 C 75.379041 62.48923 74.603278 61.940915 74.066171 60.953293 C 73.094693 59.166967 73.923365 56.958526 75.702763 55.99649 C 75.299595 55.405972 74.621687 55.019806 73.849647 55.019806 z M 68.351791 59.228851 C 67.19429 59.228851 66.262513 60.160629 66.262513 61.318129 L 66.262513 64.116925 C 66.262513 65.274425 67.19429 66.20672 68.351791 66.20672 L 68.603455 66.20672 C 69.760955 66.20672 70.692733 65.274425 70.692733 64.116925 L 70.692733 61.318129 C 70.692733 60.160629 69.760955 59.228851 68.603455 59.228851 L 68.351791 59.228851 z M 78.69948 59.849485 L 78.310356 60.021567 C 78.078829 60.12468 78.115169 60.14973 78.148609 60.21122 C 78.14996 60.21362 78.149576 60.213254 78.150676 60.215354 C 78.465135 60.300562 78.86991 60.468494 79.150615 60.984299 C 79.565661 61.747452 79.138818 62.725124 78.433346 63.041021 C 78.273923 63.112183 78.046832 63.180563 77.771371 63.171763 C 77.637823 63.167874 77.405829 63.152396 77.116631 63.099932 L 77.116631 64.106073 C 77.116631 65.254386 78.041057 66.178814 79.189372 66.178814 L 79.52992 66.178814 C 80.678234 66.178814 81.602662 65.254386 81.602662 64.106073 L 81.602662 61.328981 C 81.602662 60.988158 81.520359 60.667401 81.375802 60.384336 C 81.08957 60.621653 80.73223 60.759228 80.361394 60.783278 C 79.723532 60.824738 79.07107 60.532723 78.728419 59.902195 L 78.69948 59.849485 z M 78.150676 60.215354 C 78.138436 60.212024 78.125409 60.208119 78.113469 60.205019 L 78.119153 60.207086 C 78.145373 60.213986 78.180616 60.270934 78.150676 60.215354 z " /><path
       d="m 77.584462,54.744668 c -0.140468,0.142667 -0.173195,0.343088 -0.082,0.510755 l 0.561131,1.031786 -1.638316,0.729656 c -1.421825,0.633236 -2.021786,2.162917 -1.340014,3.41654 0.794698,1.461274 2.341782,1.582927 2.686865,1.592653 0.04638,0.0018 0.09088,-0.01 0.131813,-0.02827 0.159458,-0.07098 0.225745,-0.243128 0.14999,-0.38242 -0.05263,-0.09671 -0.163902,-0.157708 -0.280126,-0.187654 -0.199227,-0.05226 -0.509911,-0.19586 -0.722439,-0.586654 -0.371747,-0.683561 -0.04436,-1.518283 0.730915,-1.863566 l 1.404272,-0.625413 0.561132,1.031787 c 0.09043,0.166404 0.286645,0.266459 0.497251,0.25277 0.210609,-0.01366 0.391366,-0.139054 0.462112,-0.316361 l 1.218193,-3.10594 c 0.09518,-0.242653 -0.04732,-0.504459 -0.317741,-0.58425 l -3.462704,-1.021213 c -0.199109,-0.05873 -0.418448,-0.0043 -0.558912,0.138387 z"
       id="path2053-1-3-8-3"
       style="fill:#ffffff;fill-opacity:1;fill-rule:evenodd;stroke:none;stroke-width:2.40816;stroke-linecap:round;stroke-linejoin:round;stroke-dasharray:none;stroke-opacity:1;paint-order:markers stroke fill" /></g></svg>
