<?xml version="1.0" encoding="UTF-8" standalone="no"?>
<svg
   width="48.07304"
   height="52.680946"
   viewBox="0 0 48.07304 52.680947"
   version="1.1"
   id="svg8771"
   sodipodi:docname="menu-icone-sas.svg"
   xml:space="preserve"
   inkscape:version="1.4.2 (f4327f4, 2025-05-13)"
   inkscape:export-filename="menu-icone-sas.svg"
   inkscape:export-xdpi="96"
   inkscape:export-ydpi="96"
   xmlns:inkscape="http://www.inkscape.org/namespaces/inkscape"
   xmlns:sodipodi="http://sodipodi.sourceforge.net/DTD/sodipodi-0.dtd"
   xmlns="http://www.w3.org/2000/svg"
   xmlns:svg="http://www.w3.org/2000/svg"
   xmlns:rdf="http://www.w3.org/1999/02/22-rdf-syntax-ns#"
   xmlns:cc="http://creativecommons.org/ns#"
   xmlns:dc="http://purl.org/dc/elements/1.1/"><sodipodi:namedview
     id="namedview8773"
     pagecolor="#000000"
     bordercolor="#000000"
     borderopacity="0.25"
     inkscape:showpageshadow="2"
     inkscape:pageopacity="1"
     inkscape:pagecheckerboard="0"
     inkscape:deskcolor="#d1d1d1"
     showgrid="false"
     inkscape:zoom="9.8046876"
     inkscape:cx="18.256574"
     inkscape:cy="22.897211"
     inkscape:window-width="1920"
     inkscape:window-height="1057"
     inkscape:window-x="-8"
     inkscape:window-y="-8"
     inkscape:window-maximized="1"
     inkscape:current-layer="g9205"><inkscape:page
       x="0"
       y="0"
       width="48.07304"
       height="52.680946"
       id="page2"
       margin="0"
       bleed="0" /></sodipodi:namedview><!-- Generator: Sketch 50 (54983) - http://www.bohemiancoding.com/sketch --><title
     id="title8755">sas-logo-midnight</title><desc
     id="desc8757">Created with Sketch.</desc><defs
     id="defs8759" /><g
     id="Option-A"
     transform="translate(-576.16797,-240.99951)"
     fill="#ffffff"
     style="fill-rule:evenodd;stroke:none;stroke-width:1"><g
       id="sas-logo-midnight"
       transform="translate(576,240)"><g
         id="g9205"><path
           id="Fill-7"
           d="m 19.806642,14.835447 c -0.838014,-0.0288 -1.707522,0.276511 -2.445313,0.884766 -1.48582,1.223677 -1.920943,3.249673 -0.697265,4.732422 9.54e-4,0.0019 0.151272,0.1839 0.375,0.455078 l 0.02734,0.0332 c 2.81119,3.378788 6.570313,7.902344 6.570313,7.902344 4.717558,5.726197 2.607853,12.778707 -3.789063,16.796875 C 14.210552,49.179075 3.85946,47.921002 0.29492312,42.110838 3.0586936,50.264933 12.330884,55.59578 22.580079,53.032713 28.312177,51.600514 34.470668,46.337345 35.214845,39.247557 33.51153,38.973177 28.344467,37.563841 26.117189,31.802244 24.833285,28.480998 25.321715,24.88047 27.111329,22.065916 l -4.642578,-5.607422 0.482422,0.56836 -0.884766,-1.06836 c -0.614398,-0.730622 -1.421751,-1.094247 -2.259765,-1.123047 z m 14.416015,22.087891 c 0.206463,0.19399 0.396275,0.300528 0.542969,0.361328 -0.163687,-0.06755 -0.364501,-0.263068 -0.542969,-0.361328 z" /><path
           d="m 11.399168,36.343808 1.833984,2.215936 c 1.2288,1.461248 3.228672,1.451008 4.706304,0.234496 1.483776,-1.22368 1.922048,-3.247104 0.698368,-4.732928 -0.0051,-0.0031 -0.723968,-0.8704 -1.768448,-2.123776 l 1.04448,1.217536 C 15.173632,29.858816 11.828224,25.837568 11.828224,25.837568 7.110656,20.113408 9.222144,13.056 15.619072,9.037824 21.254144,5.497856 31.604736,6.757376 35.16928,12.570624 32.40448,4.41344 23.134208,-0.914432 12.886016,1.646592 3.994624,3.866624 -5.936128,15.291392 4.92544,28.474368 l 7.697408,9.294848"
           id="Fill-9" /><path
           d="m 37.724262,42.05271 v -0.736256 h 0.488448 c 0.249856,0 0.515072,0.05222 0.515072,0.349184 0,0.361472 -0.267264,0.387072 -0.574464,0.387072 z m 0,0.299008 h 0.411648 l 0.625664,1.02912 h 0.403456 l -0.674816,-1.04448 c 0.349184,-0.03994 0.616448,-0.22528 0.616448,-0.651264 0,-0.466944 -0.27648,-0.672768 -0.840704,-0.672768 h -0.90112 v 2.368512 h 0.359424 z m 0.4352,1.895424 c 1.119232,0 2.07872,-0.866304 2.07872,-2.055168 0,-1.179648 -0.959488,-2.051072 -2.07872,-2.051072 -1.129472,0 -2.08896,0.871424 -2.08896,2.051072 0,1.188864 0.959488,2.055168 2.08896,2.055168 z m -1.67424,-2.055168 c 0,-0.973824 0.731136,-1.705984 1.67424,-1.705984 0.927744,0 1.664,0.73216 1.664,1.705984 0,0.986112 -0.736256,1.717248 -1.664,1.717248 -0.943104,0 -1.67424,-0.731136 -1.67424,-1.717248 z"
           id="Fill-13" /><g
           id="path2053-1"
           inkscape:export-filename="menu-icone-sas.svg"
           inkscape:export-xdpi="96"
           inkscape:export-ydpi="96"
           transform="translate(6.52749,-8.7713147)"><path
             style="color:#000000;fill:#ffffff;stroke-width:6.552;stroke-linecap:round;stroke-linejoin:round;-inkscape-stroke:none;paint-order:stroke markers fill"
             d="m 55.642821,-3.3344784 c -0.403317,0.386164 -0.53616,0.971697 -0.334825,1.492517 l 1.238985,3.205047 -4.487066,1.734578 c -3.894133,1.505367 -5.830704,5.88274 -4.325338,9.7768714 1.754713,4.53915 5.803515,5.304128 6.710663,5.423157 0.121835,0.01737 0.241765,-0.006 0.353939,-0.04933 0.436687,-0.168811 0.651406,-0.661661 0.484143,-1.094344 -0.116152,-0.300473 -0.395289,-0.510315 -0.694621,-0.629454 -0.51288,-0.206973 -1.298265,-0.713848 -1.767531,-1.927761 -0.820826,-2.123344 0.235931,-4.512012 2.359273,-5.3328374 l 3.846056,-1.486782 1.238986,3.2050484 c 0.199788,0.516814 0.693484,0.86475 1.251677,0.879218 0.558199,0.01446 1.063697,-0.309887 1.29134,-0.816944 l 3.932119,-8.8880574 c 0.307207,-0.694381 -0.0076,-1.50765998 -0.701575,-1.81485698 L 57.150987,-3.5905304 c -0.511062,-0.226098 -1.101744,-0.122087 -1.505066,0.264073 z"
             id="path8387" /></g><path
           d="m 36.241465,14.719617 c -0.385682,0.422056 -0.47554,1.014967 -0.225147,1.510982 l 1.540694,3.052366 -4.498314,2.158563 c -3.903897,1.873322 -5.551206,6.398627 -3.679269,10.107259 2.181998,4.322933 6.429818,4.682823 7.377309,4.711596 0.127346,0.0053 0.249529,-0.02959 0.361919,-0.08363 0.437823,-0.209982 0.619827,-0.719254 0.411827,-1.131326 -0.144506,-0.2861 -0.450026,-0.466552 -0.769141,-0.555142 -0.547016,-0.154602 -1.400059,-0.579419 -1.983597,-1.735517 -1.020703,-2.022201 -0.121798,-4.491584 2.00687,-5.513046 l 3.855701,-1.85018 1.540697,3.052369 c 0.248293,0.492278 0.787039,0.788274 1.365299,0.747777 0.578268,-0.04041 1.074572,-0.411368 1.268818,-0.9359 l 3.344786,-9.188401 c 0.261335,-0.717849 -0.129927,-1.492358 -0.87242,-1.728406 l -9.507526,-3.021089 c -0.546693,-0.173742 -1.14893,-0.01272 -1.534601,0.409396 z"
           id="path2053-1-3-8-3"
           style="fill:#ffffff;fill-opacity:1;fill-rule:evenodd;stroke:none;stroke-width:6.86333;stroke-linecap:round;stroke-linejoin:round;stroke-dasharray:none;stroke-opacity:1;paint-order:markers stroke fill" /></g></g></g><metadata
     id="metadata8892"><rdf:RDF><cc:Work
         rdf:about=""><dc:title>sas-logo-midnight</dc:title></cc:Work></rdf:RDF></metadata></svg>
