<?xml version="1.0" encoding="UTF-8" standalone="no"?>
<!-- Created with Inkscape (http://www.inkscape.org/) -->

<svg
   width="45.299091mm"
   height="40.841694mm"
   viewBox="0 0 45.299091 40.841694"
   version="1.1"
   id="svg1"
   inkscape:version="1.4.2 (f4327f4, 2025-05-13)"
   sodipodi:docname="painelOrcamentoHome.svg"
   xmlns:inkscape="http://www.inkscape.org/namespaces/inkscape"
   xmlns:sodipodi="http://sodipodi.sourceforge.net/DTD/sodipodi-0.dtd"
   xmlns="http://www.w3.org/2000/svg"
   xmlns:svg="http://www.w3.org/2000/svg">
  <sodipodi:namedview
     id="namedview1"
     pagecolor="#ffffff"
     bordercolor="#000000"
     borderopacity="0.25"
     inkscape:showpageshadow="2"
     inkscape:pageopacity="0.0"
     inkscape:pagecheckerboard="0"
     inkscape:deskcolor="#d1d1d1"
     inkscape:document-units="mm"
     inkscape:zoom="0.71891835"
     inkscape:cx="30.601528"
     inkscape:cy="263.59043"
     inkscape:window-width="1920"
     inkscape:window-height="1009"
     inkscape:window-x="1912"
     inkscape:window-y="-8"
     inkscape:window-maximized="1"
     inkscape:current-layer="layer1" />
  <defs
     id="defs1" />
  <g
     inkscape:label="Camada 1"
     inkscape:groupmode="layer"
     id="layer1"
     transform="translate(-96.8375,-78.581247)">
    <g
       id="g7742"
       transform="matrix(8.8194444,0,0,8.8194444,121.6087,194.67385)"
       style="fill:none">
      <g
         style="fill:#4db6d2;fill-opacity:1"
         id="g207-3-3"
         transform="matrix(0.00904249,0,0,0.00904249,-2.808707,-13.415964)">
        <g
           id="g197-0-2"
           style="fill:#4db6d2;fill-opacity:1">
	<g
   id="g195-3-6"
   style="fill:#4db6d2;fill-opacity:1">
		<path
   d="m 72.553,400.503 c 11.12,11.119 29.156,11.119 40.282,0 l 71.849,-83.238 c 11.12,-11.119 7.387,-20.141 -8.342,-20.141 h -46.444 c -3.929,-52.24 14.688,-104.059 52.999,-142.37 71.194,-71.188 187.022,-71.188 258.209,0 34.486,34.486 53.477,80.331 53.477,129.102 0,48.77 -18.996,94.616 -53.477,129.102 -49.395,49.395 -121.219,66.23 -187.511,43.936 -19.205,-6.488 -40.043,3.867 -46.512,23.09 -6.469,19.223 3.868,40.043 23.09,46.512 27.124,9.131 54.903,13.574 82.388,13.574 66.623,0 131.439,-26.156 180.461,-75.184 48.36,-48.355 74.994,-112.645 74.994,-181.036 0,-68.392 -26.634,-132.676 -74.994,-181.036 -99.823,-99.823 -262.243,-99.823 -362.06,0 -52.424,52.424 -78.636,122.871 -74.75,194.304 H 14.744 c -15.728,0 -19.461,9.014 -8.341,20.141 z"
   id="path193-7-7"
   style="fill:#4db6d2;fill-opacity:1" />

	</g>

</g>
      </g>
      <g
         id="g410-8-5"
         transform="matrix(0.11146473,0,0,0.11146473,-1.324054,-12.188218)"
         style="fill:#f58b9b;fill-opacity:1">
        <path
           fill-rule="evenodd"
           clip-rule="evenodd"
           d="M 13,7 C 13,6.44772 12.5523,6 12,6 11.4477,6 11,6.44772 11,7 V 7.10139 C 9.40464,7.43925 8.375,8.58587 8.375,10 c 0,1.4141 1.02963,2.5607 2.625,2.8986 V 14.789 C 10.5435,14.595 10.219,14.3039 10.2015,14.2873 9.81056,13.9024 9.18159,13.9042 8.79293,14.2929 8.4024,14.6834 8.40239,15.3166 8.79291,15.7071 9.05517,15.969 9.37099,16.1852 9.69138,16.3682 10.0315,16.5626 10.4745,16.7635 11,16.8851 V 17 c 0,0.5523 0.4477,1 1,1 0.5523,0 1,-0.4477 1,-1 V 16.8986 C 14.5954,16.5607 15.625,15.4141 15.625,14 15.625,12.5859 14.5954,11.4393 13,11.1014 V 9.16492 c 0.4727,0.17408 0.6825,0.41623 0.7085,0.44627 0.3316,0.42901 0.9477,0.51691 1.3859,0.193 0.4441,-0.32827 0.5381,-0.95442 0.2098,-1.39857 0,0 5e-4,7.3e-4 -7e-4,-9e-4 C 15.2396,8.31864 15.1726,8.24151 15.0527,8.1254 14.9108,7.98796 14.707,7.81664 14.4357,7.64913 14.0715,7.42421 13.5949,7.21225 13,7.0949 Z M 2,12 C 2,6.47715 6.47715,2 12,2 17.5228,2 22,6.47715 22,12 22,17.5228 17.5228,22 12,22 6.47715,22 2,17.5228 2,12 Z"
           fill="#323232"
           id="path389-8-2"
           style="fill:#f58b9b;fill-opacity:1" />
        <path
           fill-rule="evenodd"
           clip-rule="evenodd"
           d="M 13.1252,13.2457 C 13.0682,13.2126 13,13.2562 13,13.3222 v 1.3557 c 0,0.066 0.0682,0.1096 0.1252,0.0764 v 0 C 13.52,14.5248 13.6249,14.19 13.6249,14 c 0,-0.1899 -0.1049,-0.5248 -0.4997,-0.7543 z"
           fill="#323232"
           id="path391-3-0"
           style="fill:#f58b9b;fill-opacity:1" />
        <path
           fill-rule="evenodd"
           clip-rule="evenodd"
           d="M 11,9.33969 C 11,9.26548 10.9233,9.21647 10.8597,9.25462 v 0 C 10.4773,9.48379 10.375,9.81251 10.375,10 c 0,0.1875 0.1023,0.5162 0.4847,0.7454 v 0 C 10.9233,10.7835 11,10.7345 11,10.6603 Z"
           fill="#323232"
           id="path393-9-3"
           style="fill:#f58b9b;fill-opacity:1" />
      </g>
    </g>
  </g>
</svg>
