<?xml version="1.0" encoding="UTF-8" standalone="no"?>
<!-- Created with Inkscape (http://www.inkscape.org/) -->

<svg
   width="88.122002mm"
   height="82.342491mm"
   viewBox="0 0 88.122003 82.34249"
   version="1.1"
   id="svg5"
   xml:space="preserve"
   inkscape:version="1.2.1 (9c6d41e410, 2022-07-14)"
   sodipodi:docname="portalObras.svg"
   xmlns:inkscape="http://www.inkscape.org/namespaces/inkscape"
   xmlns:sodipodi="http://sodipodi.sourceforge.net/DTD/sodipodi-0.dtd"
   xmlns="http://www.w3.org/2000/svg"
   xmlns:svg="http://www.w3.org/2000/svg"><sodipodi:namedview
     id="namedview7"
     pagecolor="#ffffff"
     bordercolor="#000000"
     borderopacity="0.25"
     inkscape:showpageshadow="2"
     inkscape:pageopacity="0.0"
     inkscape:pagecheckerboard="0"
     inkscape:deskcolor="#d1d1d1"
     inkscape:document-units="mm"
     showgrid="false"
     inkscape:zoom="0.19041982"
     inkscape:cx="1932.5719"
     inkscape:cy="252.0746"
     inkscape:window-width="1920"
     inkscape:window-height="1009"
     inkscape:window-x="1912"
     inkscape:window-y="-8"
     inkscape:window-maximized="1"
     inkscape:current-layer="layer1"><inkscape:page
       x="0"
       y="1.7451964e-15"
       width="88.122002"
       height="82.342484"
       id="page2"
       margin="0"
       bleed="0" /></sodipodi:namedview><defs
     id="defs2" /><g
     inkscape:label="Camada 1"
     inkscape:groupmode="layer"
     id="layer1"
     transform="translate(-29.080132,-70.179796)"><path
       d="m 60.906423,78.913088 c 0,-4.818907 3.84127,-8.733295 8.570163,-8.733295 4.728891,0 8.570156,3.914388 8.570156,8.733295 0,4.818909 -3.841265,8.733296 -8.570156,8.733296 -4.728893,0 -8.570163,-3.914387 -8.570163,-8.733296 z M 30.681292,100.94906 c 0.902927,-1.855828 3.106684,-2.604393 4.927843,-1.668687 l 3.764751,1.918217 1.867072,-3.181421 c 2.89243,-4.91248 8.141655,-7.87556 13.712261,-7.87556 7.070386,0 13.42149,4.756527 15.380386,11.758761 l 4.927839,17.57576 14.21729,7.23615 3.9484,-6.70591 c 0.887618,-1.49714 2.479223,-2.41726 4.193254,-2.41726 1.71402,0 3.320942,0.92012 4.193262,2.41726 l 14.69171,24.95226 c 0.90293,1.54392 0.93353,3.46213 0.0612,5.02164 -0.87232,1.55952 -2.47922,2.54201 -4.23917,2.54201 H 82.943965 c -1.759948,0 -3.397461,-0.9669 -4.254481,-2.52641 -0.857006,-1.55952 -0.841704,-3.47772 0.0612,-5.02164 l 6.94795,-11.82114 -53.364569,-27.18238 c -1.821162,-0.92012 -2.555747,-3.16582 -1.637516,-5.02165 z m 12.824637,19.66551 17.140328,8.73329 c 1.652817,0.84214 2.708784,2.57321 2.708784,4.46022 v 13.72375 c 0,2.76035 -2.188452,4.99045 -4.897236,4.99045 -2.708784,0 -4.897237,-2.2301 -4.897237,-4.99045 v -10.6359 l -9.381268,-4.78772 -5.555302,16.99873 c -0.857018,2.61999 -3.627017,4.02355 -6.198066,3.15023 -2.571049,-0.87334 -3.948396,-3.69607 -3.091381,-6.30045 l 7.345855,-22.45705 c 0.443812,-1.37237 1.453867,-2.47963 2.77,-3.02545 1.316132,-0.54584 2.800607,-0.49905 4.070827,0.14035 z"
       id="path190"
       style="fill:#ffffff;stroke-width:0.154487"
       inkscape:export-filename="C:\Users\ronicley.souza\Desktop\repo\infoplan-web\src\assets\images\app\portalObras.png"
       inkscape:export-xdpi="96"
       inkscape:export-ydpi="96" /></g></svg>
